<svg xmlns="http://www.w3.org/2000/svg" viewBox="0 0 1786.94 477.24"><path fill="#bfbfbf" d="m573.39 477.12.22.12h-2.15a25.9 25.9 0 0 0-2.6-.35 12 12 0 0 1-5.05-1.2c-1.12-.65-2.24-1.32-3.36-2-2.21-1.33-4.5-2.71-6.82-3.84-4-1.9-6.25-2.61-10.26-.9-1.67.71-3.27.27-4.81-.16a7.42 7.42 0 0 0-3.85-.4 31.08 31.08 0 0 1-7.69.86c-1.08 0-2.19 0-3.43.13a16.24 16.24 0 0 0-3.06.61c-2 .53-4 1.08-6 .27a173 173 0 0 1-21.42-10.11 41 41 0 0 0-6.51-2.68c-4.43-1.55-9-3.15-11.39-6.39-4-5.43-5.65-13.35-4.38-20.69.91-5.33.82-5.38-3.85-8l-.3-.17c-2.44-1.38-5-1.17-7.71-1-.58.05-1.16.09-1.75.12-1.61.09-3.25.35-4.84.6a44.9 44.9 0 0 1-5.29.63c-3.18.11-5.41-1.31-7.78-2.82-.53-.34-1.08-.69-1.66-1-3.15-1.88-6.53-3.52-9.79-5.1-2.95-1.43-6-2.91-8.9-4.57-1.49-.85-5-1.52-6.81-.57a1.93 1.93 0 0 0-1.15 1.61c-.18 1.67 2.53 3.95 4.15 5.31l.77.67c.8.71 1.59 1.48 2.42 2.3a29.72 29.72 0 0 0 6.12 5.05c3.4 1.85 5.62 3.06 8.12 5.86a75.47 75.47 0 0 0 8.85 8.09c2.31 1.89 4.69 3.86 6.9 6a152.32 152.32 0 0 0 15.13 12.6l2.67 2c.64.49 1.29 1 1.92 1.44 4.89 3.64 9.51 7.07 10.61 13.69.24 1.4.44 2.77.63 4.11h-.71c-.18-1.31-.38-2.63-.61-4-1.06-6.34-5.56-9.7-10.33-13.25l-1.93-1.45-2.68-2a153.15 153.15 0 0 1-15.19-12.6c-2.19-2.15-4.56-4.1-6.86-6a76.57 76.57 0 0 1-8.92-8.16c-2.42-2.72-4.6-3.9-7.89-5.7a29.57 29.57 0 0 1-6.32-5.18c-.83-.81-1.6-1.57-2.4-2.28-.2-.19-.46-.41-.75-.65-1.84-1.55-4.61-3.89-4.39-5.92a2.66 2.66 0 0 1 1.52-2.17c2.08-1.06 5.82-.36 7.48.59 2.88 1.66 5.92 3.13 8.85 4.55 3.28 1.59 6.67 3.23 9.85 5.13l1.68 1c2.37 1.51 4.41 2.81 7.38 2.71a44.13 44.13 0 0 0 5.2-.62 47 47 0 0 1 4.91-.6l1.74-.13c2.81-.22 5.48-.43 8.1 1l.3.17c4.83 2.73 5.17 3.07 4.2 8.75-1.24 7.16.4 14.88 4.26 20.15 2.24 3.07 6.72 4.64 11.05 6.15a41.82 41.82 0 0 1 6.63 2.73 171.75 171.75 0 0 0 21.34 10.07c1.76.72 3.69.21 5.55-.29a16.35 16.35 0 0 1 3.2-.64c1.25-.09 2.37-.11 3.45-.13a31.11 31.11 0 0 0 7.54-.83 7.9 7.9 0 0 1 4.21.39c1.49.42 2.9.81 4.35.2 4.08-1.75 6.54-1.16 10.83.91 2.36 1.14 4.66 2.53 6.88 3.87 1.12.67 2.23 1.35 3.35 2a11.54 11.54 0 0 0 4.77 1.12 13.4 13.4 0 0 1 4.46.99ZM370.9 445.89a56.67 56.67 0 0 1-2.18-7.4c-1-4.14-2.09-8.43-4.59-12-3.37-4.86-10-10.12-16.27-10.75-8.62-.87-14.71 1.44-22.42 4.36-4.94 1.87-12.36-4-16.34-7.72-4.41-4.08-7.55-9.46-10.59-14.65-.72-1.22-1.43-2.44-2.15-3.63-3.77-6.23-9.46-10-14.53-12.94-12.05-6.89-29.9-8.6-41.39-7.27l-4.24.47c-12.83 1.38-26.09 2.81-35.71 12.88l-1.65 1.76a57 57 0 0 1-5.66 5.54c-.41.33-.83.65-1.25 1-2.55 1.94-5.18 3.94-4.27 7.79a22.26 22.26 0 0 0 3.44 7c2.19 3.35 4.26 6.52 2.78 11.39a28.85 28.85 0 0 1-2 4.3c-2.4 4.51-5.37 10.13-1.86 13.7 5.07 5.14 10.84 5.45 17.52 5.81l1.89.1c7.24.38 14.08.74 21.17 2.36 5.12 1.18 10.26 6.16 14.38 10.16.85.82 1.66 1.61 2.43 2.31 8.88 8.24 21.46 13.11 33.42 16.85h2.37c-12.5-3.8-26-8.72-35.32-17.36-.76-.7-1.56-1.48-2.41-2.3-4.19-4.07-9.4-9.12-14.72-10.34-7.14-1.63-14-2-21.28-2.38l-1.89-.1c-6.81-.37-12.19-.66-17.06-5.6-3.15-3.2-.31-8.57 2-12.88a28.61 28.61 0 0 0 2.06-4.43c1.57-5.18-.58-8.48-2.86-12a21.76 21.76 0 0 1-3.35-6.77c-.8-3.41 1.54-5.19 4-7.07.43-.33.86-.65 1.27-1a57.26 57.26 0 0 0 5.73-5.6c.55-.59 1.1-1.18 1.65-1.75 9.44-9.89 22.57-11.31 35.27-12.68 1.42-.15 2.84-.3 4.25-.47 11.38-1.31 29 .37 41 7.19 5 2.86 10.59 6.6 14.28 12.69.72 1.19 1.43 2.4 2.14 3.62 3.07 5.24 6.24 10.66 10.72 14.81 5 4.64 12 9.77 17.07 7.86 7.62-2.89 13.65-5.18 22.1-4.31 5.95.6 12.57 5.84 15.77 10.45 2.42 3.49 3.46 7.72 4.48 11.8a59 59 0 0 0 2.21 7.49c6.36 16.1 20.62 26.39 28.57 31.09h1.57c-.51-.23-.92-.43-1.18-.58-7.93-4.69-22.08-14.87-28.37-30.8ZM452.19 471c-5.68-4-11.34-8.46-18.35-14.34-2.75-2.31-6.15-3.66-9.44-5a40.28 40.28 0 0 1-8.08-3.94c-3.21-2.21-4.41-5.61-5.67-9.2a25 25 0 0 0-3.34-7.06c-4.24-5.58-9-10.26-14.1-15.23-.84-.81-1.67-1.63-2.51-2.46-3.7-3.62-7.18-7.77-10.51-11.77-1.35-1.64-2.7-3.27-4.07-4.87-10.25-12-23.68-16.27-35.45-18.9-2.28-.51-4.08-2.74-5.67-4.7-.44-.55-.86-1.07-1.26-1.52a29 29 0 0 0-6.54-5l-.57-.35a203.59 203.59 0 0 0-20.45-11.5c-12.94-6.14-26-6.85-39.92-7.6l-1.19-.06c-15.85-.87-29.1-.77-42.31 2.5a61.37 61.37 0 0 0-12 4.91c-2.11 1.05-4.29 2.12-6.46 3a88.25 88.25 0 0 0-20.62 11.83c-2.69 2-7.28 3.21-12.15 4.49-9.78 2.58-20.86 5.5-20.08 15.89a39.23 39.23 0 0 0 1 5.56c1 4.77 2.13 9.7-1.52 13.56a64.68 64.68 0 0 1-7.39 6.37 56.72 56.72 0 0 0-8.63 7.68c-2.87 3.35-4 7-3.43 10.77 1.35 8.71 11.45 16.61 19.69 21.7a68.7 68.7 0 0 0 7.63 3.9 50.58 50.58 0 0 1 9.89 5.46c6.72 5.13 11.65 7.25 19.51 9.82 2.47.8 4.81 1.55 7.11 2.25h2.4c-2.94-.87-6-1.84-9.3-2.92-7.78-2.54-12.65-4.64-19.3-9.7a50.49 50.49 0 0 0-10-5.55 68.11 68.11 0 0 1-7.56-3.85c-8.12-5-18.06-12.77-19.37-21.22-.56-3.59.54-7 3.27-10.2a56.46 56.46 0 0 1 8.52-7.59 65.05 65.05 0 0 0 7.48-6.44c3.91-4.13 2.78-9.24 1.69-14.19a41.68 41.68 0 0 1-1-5.46c-.73-9.81 10.05-12.66 19.57-15.16 4.93-1.3 9.59-2.53 12.38-4.61a87.77 87.77 0 0 1 20.48-11.74c2.19-.91 4.38-2 6.5-3a60.36 60.36 0 0 1 11.9-4.86c13.12-3.25 26.32-3.34 42.1-2.48l1.19.06c13.81.75 26.85 1.46 39.66 7.54a203.12 203.12 0 0 1 20.38 11.45l.57.36a28.61 28.61 0 0 1 6.38 4.82c.4.45.82 1 1.25 1.5 1.66 2.05 3.54 4.38 6.05 4.94 12.26 2.74 25 6.89 35.07 18.68 1.37 1.6 2.72 3.22 4.07 4.85a158.24 158.24 0 0 0 10.56 11.91c.83.83 1.67 1.65 2.51 2.46 5 4.95 9.83 9.62 14 15.15a25 25 0 0 1 3.23 6.87c1.24 3.54 2.53 7.21 5.93 9.55a41.4 41.4 0 0 0 8.22 4c3.24 1.29 6.58 2.62 9.25 4.85 7 5.9 12.7 10.33 18.4 14.38l.87.61a77.29 77.29 0 0 1 6.59 5h1a69.56 69.56 0 0 0-7.23-5.59Zm-42.81-3c-4.28-2.17-8.35-5.8-12.3-9.31-1.45-1.3-2.82-2.52-4.18-3.65-4.71-3.91-7-9.59-9.31-15.07-.37-.91-.75-1.81-1.13-2.71-3.29-7.7-6.35-13.06-10.23-17.93-4.82-6.06-10.85-10.79-16.13-12.64-8-2.81-14.27-2.83-21.88-2l-1.48.17a43.21 43.21 0 0 1-8.94.44c-2.23-.19-4.92-2.06-7.08-3.56-.71-.5-1.39-1-2-1.34-3.76-2.32-5.45-5.79-7.23-9.47a38.57 38.57 0 0 0-3.44-6.09c-8.72-11.92-20.94-15.86-36.62-18.11-13-1.87-28-3.53-41.39.42-1.79.53-3.75 1-5.82 1.5-5.28 1.26-11.27 2.7-15.5 5.54a53.57 53.57 0 0 0-7 6.05c-3.15 3.06-6.41 6.23-9.88 7.67a28.6 28.6 0 0 1-4.7 1.17c-4.14.83-8.84 1.76-10.24 4.53a4.79 4.79 0 0 0 .25 4.3 61.69 61.69 0 0 0 3.71 6.43c2.36 3.73 4.79 7.59 5.5 11.58.9 5-2 7.61-5 10.38a20 20 0 0 0-5 5.84c-2.46 5.07 6.07 13.71 9.87 16.29 8.35 5.66 17.43 6.3 27 7a102.7 102.7 0 0 1 15 1.79c6.52 1.44 8.18 5.38 10.27 10.37.43 1 .87 2.08 1.38 3.16a14.34 14.34 0 0 0 6.74 6.52h1.64c-3.18-1.37-6.19-3.49-7.75-6.82-.5-1.06-.94-2.12-1.37-3.13-2.08-5-3.88-9.26-10.76-10.78a103.21 103.21 0 0 0-15.07-1.81c-9.52-.66-18.51-1.29-26.7-6.85-3.55-2.4-11.88-10.79-9.64-15.4a19.55 19.55 0 0 1 4.8-5.64c3-2.77 6.19-5.64 5.23-11-.74-4.12-3.21-8-5.59-11.82a59.88 59.88 0 0 1-3.67-6.36 4.06 4.06 0 0 1-.26-3.69c1.24-2.46 6-3.4 9.74-4.15a30 30 0 0 0 4.84-1.21c3.59-1.49 6.9-4.71 10.1-7.81a52.66 52.66 0 0 1 6.87-6c4.13-2.77 10-4.19 15.27-5.44 2.08-.5 4.05-1 5.85-1.5 13.24-3.92 28.16-2.26 41.1-.41 15.5 2.22 27.58 6.11 36.16 17.83a38.26 38.26 0 0 1 3.37 6c1.75 3.6 3.56 7.32 7.49 9.75.59.37 1.26.83 2 1.33 2.23 1.54 5 3.47 7.42 3.68a44.43 44.43 0 0 0 9.08-.44l1.48-.17c7.51-.86 13.73-.83 21.57 1.93 5.16 1.81 11.07 6.45 15.82 12.42 3.83 4.81 6.86 10.13 10.13 17.76.38.9.75 1.8 1.12 2.71 2.3 5.56 4.67 11.31 9.51 15.34 1.35 1.12 2.72 2.34 4.17 3.63 4 3.54 8.08 7.2 12.44 9.41 2.29 1.16 4.66 2.31 6.94 3.41 3.46 1.68 7 3.4 10.45 5.24h1.45c-3.81-2.08-7.75-4-11.59-5.86-2.26-1.15-4.6-2.29-6.88-3.42Zm11.2-6.49c-1.39-.52-2.77-1-4.12-1.58-10-4-15.43-13.59-20.63-22.84-1.92-3.41-3.73-6.62-5.76-9.6-10.06-14.68-19.31-24.43-30-31.6-5.9-4-13.41-3.95-19.28-3.49-8.43.66-12.85-.11-18.37-6.56-8.44-9.87-18.95-22.15-32.93-25.39-7.48-1.73-14.69-2.17-22.32-2.63l-1.36-.09c-2.64-.16-5.27-.51-7.81-.84a71.26 71.26 0 0 0-12.75-.88c-14.57.7-27 5.4-40.18 10.37l-3.39 1.27c-4 1.49-7 4.38-10 7.16a48.71 48.71 0 0 1-5.75 4.89c-2.48 1.7-6 1.81-9.35 1.92-3.86.12-7.86.24-10.6 2.69-5.7 5.1-3.49 10.63-1.15 16.49.45 1.13.92 2.3 1.33 3.47 1.61 4.56 1.05 12.78-3.48 15.81l-.9.59c-5.79 3.84-11.78 7.8-7.14 15.6 2.75 4.62 7.32 8.21 11.73 11.69 1.24 1 2.41 1.9 3.54 2.83 1 .8 1.88 1.6 2.8 2.4 4.7 4 9.14 7.86 15.21 9.95 5.18 1.8 10.86 2.67 16.34 3.51 2.25.34 4.57.7 6.79 1.11 7.46 1.38 10.51 4 14.51 9.51h.88c-.1-.12-.2-.26-.29-.38-4.12-5.64-7.26-8.39-15-9.82-2.23-.41-4.55-.77-6.8-1.11-5.46-.84-11.1-1.71-16.23-3.48-5.94-2.05-10.32-5.83-15-9.83l-2.81-2.39c-1.13-1-2.31-1.87-3.55-2.85-4.37-3.44-8.89-7-11.57-11.5-4.3-7.22 1.15-10.83 6.93-14.65l.9-.6c4.81-3.21 5.43-11.84 3.75-16.62-.41-1.19-.88-2.36-1.34-3.5-2.34-5.87-4.37-10.94 1-15.71 2.55-2.28 6.42-2.4 10.15-2.51 3.48-.11 7.08-.22 9.73-2.05a49.33 49.33 0 0 0 5.83-4.95c2.92-2.74 5.93-5.57 9.77-7l3.39-1.28c13.12-4.95 25.51-9.62 40-10.32a69.22 69.22 0 0 1 12.63.88c2.55.33 5.19.68 7.86.84l1.36.08c7.6.47 14.78.91 22.2 2.63 13.75 3.18 24.18 15.36 32.56 25.15 5.72 6.69 10.27 7.48 18.95 6.81 5.76-.45 13.12-.48 18.84 3.37 10.61 7.12 19.8 16.81 29.81 31.42 2 2.95 3.82 6.15 5.73 9.54 5.26 9.36 10.7 19 21 23.15 1.35.54 2.74 1.06 4.14 1.59 4.72 1.76 9.6 3.59 13.63 6.51l11.88 8.59H447l-12.66-9.16c-4.06-3.01-8.99-4.86-13.76-6.64ZM12.09 384.13c2.09-2.34 3-3.59 2.59-4.44s-1.95-.87-5-.63a31.07 31.07 0 0 1-9.68-.38v.72a32.06 32.06 0 0 0 9.7.36c1.32-.1 4.08-.31 4.35.24s-1.65 2.74-2.48 3.66c-3.07 3.43-6.87 3.53-10.89 3.63H0v.7h.69c4-.1 8.13-.21 11.4-3.86ZM48.93 471c-3.37-2.81-7.37-4.43-11.23-6-2.15-.87-4.37-1.77-6.46-2.86a99.15 99.15 0 0 0-20.38-8.39c-2.25-.61-4.55-1.33-6.77-2-1.35-.42-2.71-.85-4.09-1.26v.73c1.3.39 2.6.79 3.88 1.2 2.23.69 4.53 1.41 6.8 2a98.49 98.49 0 0 1 20.24 8.33c2.12 1.1 4.35 2 6.51 2.88 3.82 1.55 7.77 3.15 11 5.89 1.23 1 2.51 2.19 3.86 3.43.82.75 1.67 1.53 2.53 2.29h1.06c-1.07-.93-2.11-1.89-3.12-2.81-1.31-1.24-2.59-2.43-3.83-3.43Zm8.41-7.68c-2.6-1.67-5-3.58-7.38-5.42a82.17 82.17 0 0 0-9.18-6.54 82.9 82.9 0 0 1-7.42-5.12 60.78 60.78 0 0 0-10-6.48A41.49 41.49 0 0 0 16 437.3c-1-.26-1.93-.51-2.87-.79-2.24-.65-4.42-2.28-6.53-3.86-.9-.68-1.76-1.32-2.6-1.87a19.35 19.35 0 0 0-4-1.95v.74a18.26 18.26 0 0 1 3.59 1.8c.83.54 1.68 1.17 2.58 1.84 2.15 1.62 4.38 3.28 6.74 4 .95.28 1.92.54 2.89.79a41.78 41.78 0 0 1 7.29 2.4 60 60 0 0 1 9.85 6.41 81.56 81.56 0 0 0 7.49 5.16 81.34 81.34 0 0 1 9.1 6.49c2.36 1.85 4.81 3.77 7.43 5.46a125.19 125.19 0 0 0 20.77 10.93q2.76 1.14 5.62 2.42h1.72c-2.43-1.09-4.77-2.11-7.07-3.07a124.26 124.26 0 0 1-20.66-10.9Zm-17.62-5.11c-2.56-1.21-5.08-2.69-7.53-4.11a73.16 73.16 0 0 0-10.76-5.5c-3.95-1.48-8-3.3-11.87-5.05-3.14-1.42-6.33-2.85-9.56-4.16v.76c3.13 1.27 6.22 2.66 9.28 4 3.9 1.76 7.93 3.57 11.9 5.07a71.37 71.37 0 0 1 10.66 5.45c2.46 1.43 5 2.91 7.58 4.13 7 3.31 12.62 7.94 18.09 12.41a66.07 66.07 0 0 0 8.83 6h1.43a65.87 65.87 0 0 1-9.77-6.53c-5.55-4.49-11.23-9.14-18.28-12.49Zm260.15-12.91c2.54 4.15 5.42 8.84 2.15 11.67-1.61 2.39-4.65 3.21-8 3.21a37.69 37.69 0 0 1-13.27-2.95 180.42 180.42 0 0 1-17.46-9.12c-1.77-1-3.55-2-5.34-3-3.44-1.91-6.17-4.82-8.81-7.64a44.53 44.53 0 0 0-7.21-6.65c-3.26-2.22-7.59-2.44-11.77-2.65-3.41-.18-6.94-.36-9.89-1.63-6.92-3-13.21-13.37-12.93-21.38a10.64 10.64 0 0 1 7.65-10.3c6.81-2.39 12.89-2 19.93-1.51l1.45.1c1.43.1 2.87.17 4.32.25a101.59 101.59 0 0 1 16.64 1.83 52.45 52.45 0 0 1 32.49 23c4.55 7 6 12.53 7.13 20.84.24 1.57 1.54 3.69 2.92 5.93Zm-.6.37c-1.42-2.31-2.76-4.49-3-6.23-1.14-8.22-2.55-13.65-7-20.56a51.72 51.72 0 0 0-32.05-22.68 99.91 99.91 0 0 0-16.53-1.82l-4.33-.25-1.45-.1c-2.75-.18-5.35-.36-7.91-.36a34.18 34.18 0 0 0-11.73 1.83 10 10 0 0 0-7.19 9.66c-.26 7.63 5.93 17.89 12.51 20.72 2.83 1.22 6.3 1.4 9.65 1.57 4.28.22 8.7.45 12.12 2.77a44.33 44.33 0 0 1 7.33 6.75c2.61 2.78 5.3 5.65 8.64 7.51 1.79 1 3.57 2 5.35 3a182.39 182.39 0 0 0 17.32 9.11c5.18 2.24 17 5.18 20.43 0l.07-.07c2.91-2.52.3-6.74-2.23-10.85ZM0 473.55a107.46 107.46 0 0 1 16.17 3.69h2.22A104.33 104.33 0 0 0 0 472.85ZM27 476a5.2 5.2 0 0 0-6.14 1.26h1a4.34 4.34 0 0 1 1.42-.81 4.46 4.46 0 0 1 3.42.18 4.75 4.75 0 0 1 .95.63h1A5.25 5.25 0 0 0 27 476Zm23.21-36.69-3.77-3.92c-4.52-4.66-9.78-9.94-15.18-13.74a55.51 55.51 0 0 0-11-5.44 79.93 79.93 0 0 1-7.42-3.3c-4.79-2.54-9-4.68-12.89-6.59v.78c3.81 1.87 7.9 4 12.56 6.43 2.38 1.26 5 2.31 7.48 3.33a53.93 53.93 0 0 1 10.84 5.37c5.34 3.76 10.58 9 15.08 13.65l3.77 3.92c8.39 8.75 17.07 17.81 27.15 24.19l21 13.27h1.3l-21.87-13.88C67.25 457 58.6 448 50.23 439.29Zm77.71 33.17c-11.19-8-23.11-15.16-34.63-22.1-1.94-1.16-3.89-2.33-5.83-3.51a47.9 47.9 0 0 1-13.66-12.71c-4.85-6.32-10.08-9.51-16.7-13.55l-.83-.51c-2.84-1.74-5.83-3.28-8.73-4.77s-5.84-3-8.65-4.73c-2.23-1.36-12.89-9.12-12.25-12.06.12-.57.77-.94 1.94-1.08 6.5-.79 15.22 1.2 21 3.51 1.82.74 3.48 1.6 5.09 2.44 4.2 2.19 8.16 4.26 13.84 3.18.53-.1 1.12-.18 1.75-.27 3.15-.45 7.07-1 8.31-4 .19-.46.37-.92.55-1.38 1-2.56 2.06-5.2 4-7.1 5.1-4.85 13.71-6 19.74-6.37a59.1 59.1 0 0 1 7.59.14c4.59.26 9.34.54 13.47-.91 4.92-1.73 6.73-2.56 9-7.2a23.91 23.91 0 0 1 6-7.47 35.74 35.74 0 0 1 4.5-3.18c4.55-2.92 9.72-6.22 7.87-11.51-1.11-3.15-3.75-4.88-6.31-6.56-.61-.39-1.22-.79-1.81-1.21-2.78-2-4-4.21-5.11-7.42a7 7 0 0 1 .1-3.56c.39-2.05.79-4.17-1.81-5.3-1.72-.75-5.2 0-7.74.55-.68.15-1.29.28-1.76.36-7.64 1.28-13.47 1.21-20.6-2.93a34.07 34.07 0 0 1-4.52-3.71c-4.09-3.71-8.72-7.91-12.25-6.36a62.35 62.35 0 0 0-9.9 5.9 70.1 70.1 0 0 1-8.73 5.35c-5.4 2.6-13.29 1.33-20.09-3.24-6.5-4.36-10.32-10.6-10-16.29.21-3.37 2-6.47 3.94-9.75 1.67-2.86 3.4-5.82 3.95-9 .74-4.17-1.49-8.14-3.66-12a37.15 37.15 0 0 1-2.78-5.64c-1.12-3.19-2.46-6.48-3.75-9.67-4.31-10.57-8.75-21.51-7.24-32.73a35.11 35.11 0 0 1 7.93-18.48A56.45 56.45 0 0 0 45.59 205c1.09-2.18 2.21-4.44 3.51-6.59.43-.7.87-1.39 1.3-2.07 1.74-2.71 3.39-5.27 3.81-8.55a35.75 35.75 0 0 0 .17-5.37c0-1.39-.05-2.82 0-4.21.43-5.74 2.14-10.89 3.94-16.35.3-.92.61-1.85.91-2.79l7.49-23.24c.59-1.84.38-3.29-.62-4.31-2.87-2.92-11.33-1.15-13.44-.52a67.06 67.06 0 0 0-10.32 4.42 68.13 68.13 0 0 1-9.72 4.22 26.21 26.21 0 0 1-8.18.77c-3.82 0-7.78-.09-11.36 2.24-4.2 2.73-8.62 5.26-13.08 7.65v.8c4.59-2.46 9.14-5 13.51-7.89 3.41-2.21 7.08-2.17 11-2.12a26.87 26.87 0 0 0 8.4-.8A70.33 70.33 0 0 0 42.7 136a67.35 67.35 0 0 1 10.21-4.38c3-.9 10.38-2.07 12.74.35.81.81 1 2 .45 3.59l-7.49 23.25c-.3.93-.61 1.86-.91 2.78-1.81 5.5-3.53 10.69-4 16.52-.1 1.42-.08 2.87 0 4.28a35.57 35.57 0 0 1-.16 5.26c-.41 3.12-2 5.62-3.71 8.27-.44.68-.88 1.37-1.31 2.08-1.31 2.18-2.44 4.44-3.54 6.64a54.4 54.4 0 0 1-6.29 10.54A35.79 35.79 0 0 0 30.6 234c-1.54 11.4 2.94 22.43 7.28 33.09 1.29 3.18 2.63 6.46 3.74 9.63a38.68 38.68 0 0 0 2.83 5.76c2.1 3.73 4.28 7.6 3.59 11.52-.54 3-2.24 5.94-3.88 8.74-1.87 3.21-3.81 6.53-4 10.07-.36 5.93 3.58 12.42 10.28 16.91 7 4.7 15.16 6 20.78 3.29a69.52 69.52 0 0 0 8.78-5.37 61.84 61.84 0 0 1 9.79-5.83c3.11-1.38 7.75 2.85 11.49 6.24a33.66 33.66 0 0 0 4.63 3.79c7.33 4.25 13.28 4.33 21.08 3 .47-.08 1.09-.21 1.79-.36 2.31-.5 5.8-1.26 7.31-.6 2.09.91 1.79 2.51 1.4 4.53a7.56 7.56 0 0 0-.07 3.92c1.18 3.34 2.43 5.68 5.37 7.76q.9.63 1.83 1.23c2.57 1.68 5 3.27 6 6.21 1.67 4.76-3 7.77-7.59 10.68a36.72 36.72 0 0 0-4.58 3.25 24.94 24.94 0 0 0-6.19 7.68c-2.15 4.42-3.67 5.12-8.59 6.85-4 1.4-8.68 1.13-13.2.87a61.94 61.94 0 0 0-7.68-.14c-6.14.42-14.91 1.55-20.17 6.57-2.11 2-3.18 4.72-4.22 7.34l-.48 1.37c-1.09 2.65-4.8 3.18-7.77 3.61-.64.09-1.24.17-1.78.27-5.44 1-9.12-.89-13.39-3.11a56.07 56.07 0 0 0-5.15-2.46C44 398 35.11 396 28.49 396.77c-1.49.18-2.34.73-2.54 1.62-.84 3.91 12.44 12.72 12.58 12.8 2.82 1.73 5.81 3.27 8.69 4.76s5.87 3 8.69 4.75l.83.5c6.56 4 11.74 7.17 16.5 13.38a49.28 49.28 0 0 0 13.88 12.87c1.94 1.18 3.88 2.34 5.88 3.55 11.51 6.94 23.42 14.1 34.58 22.07a51 51 0 0 0 7.44 4.21h1.59-.08a59.36 59.36 0 0 1-8.59-4.82ZM279 426.68a5.9 5.9 0 0 1-3.61 4.81 10 10 0 0 1-6.95 2.8c-5.6 0-11.62-4.31-17.13-8.26-3.4-2.43-6.6-4.72-9.24-5.61a72.87 72.87 0 0 0-9-2.17 65.08 65.08 0 0 1-10-2.52 8.37 8.37 0 0 1-5.52-6.48 7.15 7.15 0 0 1 2.75-6.81c3.36-2.59 11.34-.31 16.62 1.2 1.42.41 2.64.76 3.5.94a68.52 68.52 0 0 0 8.17 1 64.28 64.28 0 0 1 8.79 1.14c7.52 1.69 12.25 5.23 17.65 9.68a12.4 12.4 0 0 1 3.97 10.28Zm-4.4-9.68c-5.33-4.39-10-7.88-17.37-9.54a63.62 63.62 0 0 0-8.68-1.12 68.27 68.27 0 0 1-8.26-1c-.89-.18-2.12-.54-3.55-.94-3.52-1-8.26-2.37-11.9-2.37a6.73 6.73 0 0 0-4.1 1 6.37 6.37 0 0 0-2.49 6.15 7.69 7.69 0 0 0 5.07 5.93 65.25 65.25 0 0 0 9.9 2.5 69.81 69.81 0 0 1 9.06 2.19c2.74.92 6 3.24 9.42 5.7 7.7 5.51 16.42 11.76 23.25 5.47a.39.39 0 0 1 .11-.06 5.28 5.28 0 0 0 3.24-4.29 11.62 11.62 0 0 0-3.7-9.62Zm-167.47 53.21c-5.26-2.73-10.71-5.55-15.79-8.84a169.17 169.17 0 0 1-18.92-13.67 72.48 72.48 0 0 1-8-8.48 91.59 91.59 0 0 0-6.42-7.1c-4.48-4.29-9.48-7.33-14.78-10.55l-1.38-.85c-1.82-1.1-3.67-2.31-5.46-3.47a98.55 98.55 0 0 0-13.1-7.61l-13.46-6.06-1.2-.52c-2-.85-4.5-1.91-5.59-3.28a2.51 2.51 0 0 1-.78-2.11c.29-1 2-1.63 3.62-2.21.47-.17.94-.33 1.38-.51L19.41 390c6.05-2.45 13.71-2.39 18.86-1.52 1.39.23 2.8.45 4.21.66 2.76.41 5.62.84 8.36 1.46a37.28 37.28 0 0 1 4.06 1.28 26 26 0 0 0 5.78 1.6c4.46.49 6.29-1.49 8.9-4.75a24.89 24.89 0 0 1 7.85-6.73c5.66-3.39 12.47-4.44 19-5.46l.81-.13c.71-.11 1.7-.17 2.85-.24 3.31-.21 7.43-.48 9-2.07a15 15 0 0 0 2.81-4.74 18.19 18.19 0 0 1 2.13-4c3.59-4.62 3.09-5.4.31-9.76l-.37-.58c-1.89-3-4.16-4.35-7.4-6.1-7.77-4.2-13.29-2.42-20.81.77-4.89 2.08-9.79 4.38-14.53 6.6Q67.64 358 64 359.71c-.78.36-1.62.77-2.49 1.21-4.45 2.22-10 5-14.48 3.1-8.47-3.54-8.8-8.31-6.45-15.88 1.25-4-4.19-8.87-8.17-12.43-1-.86-1.79-1.6-2.4-2.22-1.39-1.42-2.86-2.85-4.27-4.23-4.25-4.14-8.64-8.42-12-13.32-3.51-5.12-1.31-11.62.63-17.35.3-.88.59-1.73.85-2.56a38.86 38.86 0 0 0 1-4.8 35.56 35.56 0 0 1 1-4.56c.2-.64.43-1.32.67-2 .9-2.56 1.91-5.46 1.36-8.12a57.21 57.21 0 0 0-3.38-9.9 50.94 50.94 0 0 1-3.47-10.46c-.33-2-.54-3.91-.75-5.81-.56-5.18-1.09-10.08-3.93-14.68A30 30 0 0 0 0 227.22v.85a29 29 0 0 1 7.16 8c2.77 4.48 3.29 9.3 3.84 14.4.2 1.91.41 3.88.75 5.84a51.26 51.26 0 0 0 3.51 10.62 56 56 0 0 1 3.34 9.77c.51 2.47-.46 5.28-1.33 7.75-.24.7-.48 1.39-.68 2a38 38 0 0 0-1 4.64 36.66 36.66 0 0 1-1 4.71c-.26.82-.55 1.67-.84 2.55-2 5.88-4.25 12.55-.54 18 3.39 5 7.81 9.26 12.08 13.42 1.41 1.38 2.87 2.8 4.26 4.22.63.64 1.47 1.39 2.44 2.25 3.61 3.24 9.08 8.13 8 11.71-2.42 7.77-2.07 13 6.85 16.72 4.79 2 10.49-.83 15.06-3.11.87-.44 1.7-.85 2.47-1.2 2.42-1.11 4.83-2.25 7.25-3.38 4.73-2.22 9.62-4.52 14.5-6.59 7.56-3.21 12.69-4.87 20.2-.81 3.15 1.71 5.35 3 7.15 5.87l.37.57c2.73 4.29 3 4.74-.27 9a18.59 18.59 0 0 0-2.22 4.1 14.47 14.47 0 0 1-2.67 4.54c-1.37 1.39-5.51 1.66-8.53 1.85-1.16.07-2.17.14-2.91.25l-.8.13c-6.65 1-13.53 2.09-19.31 5.55a25.32 25.32 0 0 0-8 6.94c-2.54 3.17-4.18 4.94-8.28 4.49a25.41 25.41 0 0 1-5.63-1.55A34.67 34.67 0 0 0 51 390c-2.77-.63-5.64-1.06-8.42-1.47-1.4-.22-2.8-.43-4.19-.66-5.25-.89-13-.94-19.25 1.56L7 394.3c-.42.18-.88.34-1.34.5-1.81.64-3.68 1.31-4.07 2.68a3.12 3.12 0 0 0 .91 2.74c1.2 1.5 3.79 2.6 5.86 3.48.43.18.83.35 1.19.52L23 410.28a98 98 0 0 1 13 7.56c1.79 1.16 3.65 2.37 5.47 3.48l1.39.85c5.26 3.2 10.23 6.22 14.65 10.46a88.51 88.51 0 0 1 6.37 7 73.84 73.84 0 0 0 8 8.56A171.2 171.2 0 0 0 91 462c5.11 3.3 10.57 6.13 15.85 8.87l2.87 1.49a52 52 0 0 1 7.35 4.92h1.15a57.6 57.6 0 0 0-8.22-5.58Z"/></svg>