<svg xmlns="http://www.w3.org/2000/svg" viewBox="0 0 1786.94 477.24"><path fill="#bfbfbf" d="M1312.52 59.45c1.16 8.32 2.58 13.82 7.13 20.85a52.44 52.44 0 0 0 32.49 23 101.47 101.47 0 0 0 16.63 1.83l4.33.25 1.46.1c2.77.19 5.39.36 8 .36a34.94 34.94 0 0 0 12-1.87 10.64 10.64 0 0 0 7.65-10.3c.28-8-6-18.4-12.93-21.38-3-1.27-6.48-1.45-9.89-1.63-4.18-.21-8.51-.43-11.77-2.64a45 45 0 0 1-7.21-6.66c-2.64-2.81-5.37-5.73-8.81-7.64-1.79-1-3.56-2-5.34-3a180.25 180.25 0 0 0-17.45-9.12c-4.25-1.84-17.24-5.73-21.27.26-3.27 2.83-.39 7.52 2.15 11.67 1.31 2.2 2.61 4.33 2.83 5.92ZM1308 42.33l.07-.08c1.42-2.16 4.27-2.92 7.48-2.92a36.29 36.29 0 0 1 13 2.87 181.37 181.37 0 0 1 17.39 9.09c1.77 1 3.55 2 5.34 3 3.35 1.86 6 4.73 8.64 7.51a45.24 45.24 0 0 0 7.33 6.76c3.42 2.32 7.85 2.54 12.12 2.76 3.35.18 6.82.36 9.65 1.57 6.58 2.83 12.77 13.09 12.51 20.72a10 10 0 0 1-7.18 9.66c-6.68 2.34-12.69 1.94-19.64 1.47l-1.46-.1-4.34-.25a99.89 99.89 0 0 1-16.52-1.81 51.76 51.76 0 0 1-32-22.68c-4.48-6.92-5.88-12.35-7-20.57-.24-1.74-1.58-3.92-3-6.23-2.7-4.1-5.31-8.34-2.39-10.77ZM1464.84 2.9a19.65 19.65 0 0 0-4.23-2.9h1.45a18.36 18.36 0 0 1 3.27 2.4 72.76 72.76 0 0 0 17.83 12.77 58.77 58.77 0 0 1 8.44 5.73 58.29 58.29 0 0 0 8.2 5.57l2.87 1.49c5.28 2.74 10.74 5.57 15.85 8.87a170 170 0 0 1 19 13.74 74.57 74.57 0 0 1 8 8.55 90.63 90.63 0 0 0 6.37 7.05c4.42 4.23 9.39 7.26 14.65 10.46l1.39.84c1.83 1.11 3.68 2.32 5.47 3.49a98 98 0 0 0 13 7.55l13.6 6.07 1.19.51c2.07.88 4.66 2 5.86 3.48a3.09 3.09 0 0 1 .91 2.74c-.39 1.37-2.26 2-4.06 2.68-.47.16-.93.33-1.35.5l-12.16 4.91c-6.19 2.51-14 2.45-19.25 1.56-1.39-.23-2.79-.44-4.19-.65-2.78-.42-5.65-.85-8.41-1.48a36.07 36.07 0 0 1-4.14-1.3 24.91 24.91 0 0 0-5.63-1.56c-4.1-.45-5.74 1.32-8.28 4.49a25.32 25.32 0 0 1-8 6.94c-5.78 3.46-12.65 4.53-19.3 5.56l-.81.12c-.74.11-1.75.18-2.91.25-3 .2-7.16.46-8.52 1.86a14.34 14.34 0 0 0-2.68 4.53 18.59 18.59 0 0 1-2.22 4.1c-3.29 4.23-3 4.68-.26 9l.36.57c1.8 2.84 4 4.17 7.15 5.87 7.51 4.06 12.64 2.41 20.2-.8 4.88-2.07 9.77-4.37 14.5-6.59q3.61-1.71 7.26-3.39c.76-.35 1.59-.76 2.46-1.19 4.58-2.29 10.27-5.12 15.06-3.12 8.92 3.72 9.27 9 6.85 16.73-1.11 3.57 4.35 8.46 8 11.7 1 .87 1.8 1.62 2.43 2.25 1.39 1.42 2.85 2.84 4.26 4.22 4.28 4.17 8.69 8.47 12.08 13.42 3.72 5.42 1.46 12.09-.54 18-.29.88-.58 1.73-.84 2.55a35 35 0 0 0-1 4.71 39.57 39.57 0 0 1-1 4.64c-.2.66-.44 1.34-.68 2-.86 2.47-1.84 5.28-1.33 7.75a56 56 0 0 0 3.34 9.77 51.06 51.06 0 0 1 3.51 10.62c.34 2 .55 3.94.76 5.84.55 5.11 1.07 9.92 3.83 14.4 3.43 5.54 7.82 9.26 14.69 12.42 1 .46 2.07.92 3.13 1.38 5.75 2.49 11.69 5.06 14.93 10.5 1.91 3.21 2 6.22 2.17 9.71v.91c0 .86.27 1.42.71 1.67 1.12.63 3.5-.66 5.07-1.51l1.06-.56c1.78-.85 3.61-3.91 5.07-6.37.6-1 1.17-1.95 1.66-2.63s1-1.46 1.55-2.21a42.24 42.24 0 0 1 4-5.28 59.8 59.8 0 0 1 10.45-8.36c2.07-1.42 4.21-2.88 6.33-4.56.76-.61 1.51-1.25 2.27-1.89a33 33 0 0 1 6.9-4.92l2.27-1a37.76 37.76 0 0 0 7.6-4.18c4.69-3.62 8.42-13.08 9.81-17a7.74 7.74 0 0 0-.19-6.37c-1.32-2.52-4.4-4.54-8.67-5.69-12.42-3.36-26.91-7.86-40.24-15.84a37.23 37.23 0 0 0-6.2-2.72c-4.25-1.58-8.64-3.21-10.84-7-3.24-5.68-1-11.62 6.37-17.18a30.69 30.69 0 0 1 6-2.66c4.69-1.75 10.52-3.93 10-6.31-.4-1.72-4.14-3.94-6.62-5.41-1-.57-1.78-1.06-2.3-1.44-2.81-2.06-3.6-4.92-4.22-7.92a18.8 18.8 0 0 1 .08-5.84 24.18 24.18 0 0 0 .24-4.7c-.14-1.49-.15-4.25 1.3-6a4 4 0 0 1 2.9-1.41 41.18 41.18 0 0 0 11.37-2c.32-.11.68-.24 1.08-.4 2.44-.92 6.13-2.31 8.23-1.31 8.11 3.85 8.59 8.35 8.8 16.62a5 5 0 0 0 1.41 3.72c1.91 1.78 5.59 1.6 8.83 1.46a21 21 0 0 1 5.24.14c7.11 1.67 12.23 6.22 15.22 13.53s-.14 13.47-3.93 19.56l-.19.3c-1.37 2.2-3.26 5.21-1.55 7.52.43.58.87 1.26 1.34 2 1.42 2.2 3 4.69 5.06 5.55 2.6 1.09 5.53-.51 8.12-1.91.75-.41 1.45-.79 2.13-1.11 3.05-1.4 6.44-1.22 9.35-.86a13.77 13.77 0 0 1 4.43 1.51 9.69 9.69 0 0 0 5.54 1.38c3.41-.32 4.39-3.57 5.26-6.43q.15-.51.3-1a8.58 8.58 0 0 1 6-5.86 11.41 11.41 0 0 1 10.38 2.59c3.06 2.68 4 5.78 2.83 9.76-.52 1.82-3.75 3.65-6.34 5.12-.89.51-1.66.94-2.17 1.29-1.33.93-1.76 3.18-2.17 5.36a13.93 13.93 0 0 1-1.15 4 17.36 17.36 0 0 1-3.38 3.92 15.36 15.36 0 0 0-3.46 4.17c-1.2 2.56-.08 4.87 1.1 7.31.29.6.58 1.2.84 1.8s.49 1.28.76 2c.81 2.29 1.83 5.15 3.49 6.37 1.85 1.37 3.84.82 6 .24a11.87 11.87 0 0 1 3.89-.63c4.2.27 6.81 1 9.45 4s2.41 6.66 2.3 10.24c-.1 3.14-.2 6.11 1.5 8.37q.69.92 1.38 1.8c3.87 5.05 7.53 9.82 7.09 16.82 0 .78-.13 1.55-.21 2.3-.36 3.26-.67 6.09 2.17 8.37.34.27.67.55 1 .83v1c-.44-.42-.91-.84-1.42-1.26-3.13-2.52-2.79-5.66-2.43-9 .08-.74.16-1.49.21-2.27.42-6.73-3.16-11.4-7-16.34l-1.43-1.77c-1.84-2.45-1.74-5.69-1.64-8.81.11-3.45.22-7-2.14-9.76s-5-3.55-9-3.8a11.32 11.32 0 0 0-3.67.6c-2.17.61-4.42 1.23-6.55-.34-1.83-1.35-2.89-4.32-3.73-6.71-.26-.72-.51-1.41-.75-2s-.53-1.18-.82-1.76c-1.2-2.49-2.45-5.06-1.11-7.91a15.83 15.83 0 0 1 3.62-4.38 17 17 0 0 0 3.25-3.76 13.73 13.73 0 0 0 1.07-3.83c.44-2.32.89-4.71 2.46-5.8.54-.37 1.32-.82 2.23-1.33 2.35-1.33 5.56-3.15 6-4.7 1.06-3.74.25-6.52-2.62-9a10.83 10.83 0 0 0-9.73-2.44 7.87 7.87 0 0 0-5.5 5.39l-.3 1c-.89 2.92-2 6.56-5.87 6.93a10.53 10.53 0 0 1-5.91-1.45 13 13 0 0 0-4.2-1.44c-2.82-.35-6.09-.53-9 .8-.66.3-1.36.68-2.1 1.08-2.72 1.48-5.8 3.16-8.72 1.94-2.24-.94-3.9-3.52-5.38-5.81-.46-.72-.9-1.4-1.31-2-2-2.69 0-5.94 1.52-8.31l.18-.3c3.7-5.93 6.78-11.85 3.88-18.93s-7.85-11.5-14.73-13.1a20.33 20.33 0 0 0-5-.14c-3.38.16-7.21.34-9.33-1.64a5.7 5.7 0 0 1-1.64-4.21c-.21-8.22-.65-12.33-8.4-16-1.83-.87-5.35.46-7.68 1.34l-1.09.4a42.08 42.08 0 0 1-11.56 2 3.37 3.37 0 0 0-2.42 1.17c-1.33 1.57-1.24 4.33-1.14 5.45a23.94 23.94 0 0 1-.23 4.84 18.33 18.33 0 0 0-.09 5.62c.61 3 1.33 5.58 4 7.5.49.36 1.3.84 2.24 1.39 2.89 1.72 6.48 3.85 6.94 5.86.68 3-5.21 5.18-10.41 7.13a30.52 30.52 0 0 0-5.85 2.56c-7.19 5.39-9.27 10.86-6.18 16.27 2.07 3.62 6.34 5.2 10.48 6.74a37.51 37.51 0 0 1 6.31 2.77c13.26 7.94 27.69 12.42 40.06 15.76 4.46 1.2 7.7 3.35 9.11 6.05a8.4 8.4 0 0 1 .23 6.92c-1.41 4-5.2 13.57-10 17.31a38.64 38.64 0 0 1-7.73 4.26c-.76.34-1.51.68-2.26 1a32.74 32.74 0 0 0-6.75 4.81c-.76.65-1.52 1.3-2.29 1.9-2.13 1.7-4.29 3.17-6.37 4.59a60.52 60.52 0 0 0-10.34 8.27 42.31 42.31 0 0 0-4 5.2c-.52.75-1 1.5-1.56 2.23s-1 1.58-1.62 2.57c-1.51 2.54-3.4 5.7-5.36 6.65-.29.13-.64.32-1 .54-1.82 1-4.3 2.32-5.76 1.5a2.53 2.53 0 0 1-1.06-2.25v-.91c-.14-3.53-.25-6.32-2.08-9.39-3.12-5.24-9-7.76-14.59-10.21a134.7 134.7 0 0 1-3.15-1.39c-6.91-3.18-11.54-7.09-15-12.68-2.85-4.61-3.38-9.51-3.94-14.69-.2-1.9-.42-3.86-.75-5.8a51.4 51.4 0 0 0-3.46-10.47 56.42 56.42 0 0 1-3.39-9.9c-.55-2.66.47-5.56 1.36-8.12.24-.69.47-1.37.67-2a37.63 37.63 0 0 0 1-4.55 36.86 36.86 0 0 1 1-4.81c.26-.82.55-1.68.85-2.56 1.94-5.73 4.14-12.22.63-17.35-3.36-4.9-7.75-9.18-12-13.32-1.42-1.38-2.88-2.8-4.28-4.23-.61-.62-1.44-1.36-2.4-2.22-4-3.56-9.42-8.43-8.17-12.43 2.35-7.57 2-12.34-6.45-15.88-4.49-1.88-10 .88-14.48 3.1-.87.44-1.71.85-2.48 1.21-2.43 1.11-4.84 2.25-7.26 3.38-4.73 2.22-9.63 4.52-14.52 6.6-7.52 3.2-13 5-20.81.77-3.24-1.75-5.51-3.12-7.4-6.1l-.36-.57c-2.79-4.37-3.29-5.15.3-9.77a18.35 18.35 0 0 0 2.13-3.94 15 15 0 0 1 2.81-4.75c1.56-1.59 5.67-1.85 9-2.07 1.15-.07 2.15-.13 2.85-.24l.81-.13c6.58-1 13.39-2.07 19-5.46a24.89 24.89 0 0 0 7.85-6.78c2.61-3.26 4.44-5.23 8.9-4.75a26.27 26.27 0 0 1 5.79 1.6 36.45 36.45 0 0 0 4.05 1.28c2.74.62 5.6 1 8.37 1.47 1.4.21 2.81.42 4.2.65 5.15.87 12.81.93 18.86-1.52l12.17-4.91c.43-.18.9-.34 1.37-.51 1.64-.58 3.33-1.18 3.63-2.21a2.56 2.56 0 0 0-.79-2.11c-1.09-1.37-3.58-2.43-5.59-3.27l-1.2-.53-13.51-6.06a98.1 98.1 0 0 1-13.1-7.61c-1.79-1.16-3.64-2.36-5.46-3.47l-1.38-.85c-5.3-3.22-10.3-6.26-14.77-10.55a89.73 89.73 0 0 1-6.43-7.1 73.16 73.16 0 0 0-7.94-8.47 170.31 170.31 0 0 0-18.93-13.68c-5.08-3.29-10.53-6.11-15.79-8.84l-2.87-1.49a58.26 58.26 0 0 1-8.3-5.64 59.05 59.05 0 0 0-8.34-5.66 73.15 73.15 0 0 1-18.07-12.84Zm48.37 5.3a127.16 127.16 0 0 1-13.33-8.2h1.24a119.83 119.83 0 0 0 12.41 7.58c4.16 2.12 8.5 4 12.71 5.84 8.85 3.85 18 7.83 25.73 14.15 5.47 4.47 11.12 9.09 18.09 12.4 2.59 1.23 5.13 2.7 7.58 4.13a71.37 71.37 0 0 0 10.66 5.45c4 1.5 8 3.32 11.9 5.07 9.47 4.26 19.25 8.67 29.6 9.27a46 46 0 0 0 8-.49c1.31-.15 2.66-.32 3.94-.41a25.82 25.82 0 0 1 7.68.91c.62.14 1.24.28 1.86.4a141 141 0 0 0 22.09 2.42l2.39.1c6.15.26 12 .5 17.39 3.93 7.72 4.89 13.83 8.45 19.82 11.56a48.52 48.52 0 0 0 10.88 3.57 71.71 71.71 0 0 1 7.77 2.21c2.34.87 4.72 1.79 7 2.69 4.61 1.8 9.37 3.66 14.14 5.13 7 2.19 13.54 2.83 19.32 1.9 6.38-1 10.53-.73 14.86 1.47v.78c-4.31-2.3-8.31-2.6-14.75-1.56-5.88.94-12.49.3-19.64-1.92-4.79-1.48-9.57-3.35-14.19-5.15-2.29-.89-4.67-1.82-7-2.68a70.76 70.76 0 0 0-7.7-2.19 49.1 49.1 0 0 1-11-3.63c-6-3.12-12.12-6.69-19.87-11.59-5.27-3.33-11-3.57-17-3.82l-2.4-.1a143.91 143.91 0 0 1-22.27-2.42l-1.87-.41a25.31 25.31 0 0 0-7.47-.89c-1.27.09-2.62.25-3.91.4a47.43 47.43 0 0 1-8.11.5c-10.48-.61-20.32-5-29.84-9.33-3.89-1.75-7.92-3.56-11.87-5a72.69 72.69 0 0 1-10.76-5.5c-2.44-1.42-5-2.89-7.53-4.11-7-3.34-12.73-8-18.23-12.49-7.65-6.26-16.76-10.22-25.57-14-4.22-1.94-8.57-3.84-12.75-5.97ZM1749.39 2c-2.83-.64-5.74-1.3-8.65-2h2.94c2 .47 3.94.92 5.86 1.35 3.22.73 6.26 1.42 9.07 2.17l.67.18c5.42 1.44 11 2.94 16 5.48a79.68 79.68 0 0 1 8.75 5.48c1 .65 1.93 1.31 2.91 2v.84c-1.12-.74-2.22-1.48-3.3-2.23a79.63 79.63 0 0 0-8.64-5.46c-4.9-2.52-10.47-4-15.86-5.44l-.67-.18c-2.84-.74-5.87-1.43-9.08-2.19Zm-142.81 5.2c-8.09-.4-15.8-3.42-23.27-7.2h1.57c7 3.45 14.22 6.13 21.73 6.5a60.18 60.18 0 0 1 10.67 1.81c2.32.54 4.73 1.1 7.19 1.46l28.06 4.1c5.7.83 10.89 3.38 15.91 5.83 6.47 3.17 13.15 6.44 20.89 6l2.39-.17a44.41 44.41 0 0 1 8.63-.07c3.09.38 5.9 1.83 8.62 3.22.82.43 1.64.85 2.47 1.24a71.05 71.05 0 0 1 7.3 4.22 58.53 58.53 0 0 0 8.55 4.77c2.43 1 4.9 2.12 7.28 3.18 4.8 2.15 9.77 4.36 14.76 6 3.14 1.06 6.35 2 9.46 2.9 3.81 1.11 7.76 2.25 11.61 3.64 4.11 1.47 7.87 1.19 11.85.88 1.52-.11 3.08-.22 4.69-.24V56c-1.58 0-3.13.12-4.63.24-4.06.31-7.9.6-12.15-.92-3.83-1.38-7.76-2.52-11.57-3.63-3.11-.91-6.33-1.84-9.48-2.9-5-1.69-10-3.92-14.82-6.07-2.38-1.06-4.85-2.16-7.27-3.17a59.29 59.29 0 0 1-8.65-4.83 71.05 71.05 0 0 0-7.23-4.18c-.84-.39-1.66-.82-2.49-1.24-2.66-1.37-5.42-2.79-8.38-3.15a43 43 0 0 0-8.49.07l-2.41.17c-7.92.46-14.69-2.85-21.23-6.06-5-2.43-10.12-4.95-15.72-5.77l-28.06-4.1c-2.48-.36-4.9-.92-7.24-1.47a59.19 59.19 0 0 0-10.54-1.79Zm-272.14 75.18c5.4 4.45 10.13 8 17.66 9.68a63.94 63.94 0 0 0 8.78 1.14 70.64 70.64 0 0 1 8.17 1c.87.18 2.09.53 3.5.94 3.55 1 8.31 2.38 12.08 2.38a7.42 7.42 0 0 0 4.54-1.18 7.12 7.12 0 0 0 2.75-6.8 8.39 8.39 0 0 0-5.52-6.49 65.08 65.08 0 0 0-10-2.52 71.1 71.1 0 0 1-9-2.17c-2.64-.88-5.84-3.18-9.24-5.61-7.89-5.65-16.83-12.06-24.08-5.46a5.91 5.91 0 0 0-3.61 4.81 12.4 12.4 0 0 0 3.97 10.28Zm-3.25-10.17a5.25 5.25 0 0 1 3.24-4.29.27.27 0 0 0 .1-.06 9.34 9.34 0 0 1 6.53-2.63c5.41 0 11.31 4.23 16.72 8.1 3.43 2.46 6.68 4.79 9.42 5.7a71.94 71.94 0 0 0 9.06 2.2 64 64 0 0 1 9.9 2.49 7.69 7.69 0 0 1 5.07 5.93 6.36 6.36 0 0 1-2.49 6.15c-3.08 2.38-10.85.15-16-1.32-1.42-.41-2.66-.77-3.55-1a68.11 68.11 0 0 0-8.25-1 62 62 0 0 1-8.69-1.12c-7.37-1.66-12-5.15-17.37-9.54a11.61 11.61 0 0 1-3.69-9.61Zm-52.47-71.07A102.34 102.34 0 0 1 1265.29 0h5.53c2.63.22 5.3.34 7.93.44s5.25.22 7.75.44a42 42 0 0 0 12.19-.88h3.31c-5.19 1.2-10 2.06-15.56 1.57-2.44-.21-5.03-.32-7.72-.43ZM1147.37 0h.7c0 6.29 2.62 12.18 7.2 15.49l20.24 14.65c4 2.92 8.91 4.75 13.63 6.51 1.4.53 2.79 1.05 4.14 1.59 10.28 4.11 15.72 13.79 21 23.15 1.91 3.39 3.71 6.6 5.73 9.54 10 14.61 19.2 24.31 29.81 31.42 5.72 3.85 13.08 3.82 18.84 3.38 1.57-.13 3-.2 4.33-.2 6 0 9.93 1.52 14.62 7 8.38 9.79 18.81 22 32.56 25.16 7.42 1.71 14.6 2.15 22.2 2.62l1.36.08c2.67.17 5.31.51 7.86.85a72 72 0 0 0 12.63.88c14.46-.7 26.85-5.38 40-10.33l3.39-1.28c3.84-1.44 6.86-4.27 9.77-7a49.33 49.33 0 0 1 5.83-5c2.66-1.83 6.25-1.94 9.73-2 3.74-.12 7.6-.24 10.15-2.52 5.34-4.77 3.31-9.84 1-15.71-.46-1.14-.93-2.31-1.34-3.5-1.68-4.78-1.06-13.41 3.75-16.62l.9-.6c5.78-3.82 11.23-7.43 6.93-14.65-2.68-4.51-7.2-8.06-11.57-11.5-1.24-1-2.41-1.9-3.54-2.84-1-.8-1.89-1.61-2.82-2.4-4.64-4-9-7.78-15-9.83a93.09 93.09 0 0 0-16.23-3.47c-2.25-.35-4.57-.71-6.8-1.12-7.71-1.43-10.86-4.18-15-9.82-3.46-4.73-8.32-10.5-15.22-13.15-4.81-1.85-8.95-1.73-13.34-1.61a63 63 0 0 1-7.72-.11c-4-.37-7.68-1.83-11.24-3.24a50.34 50.34 0 0 0-8.79-2.82c-1.08-.21-2.2-.45-3.33-.69l-1.19-.31h3.39l1.27.27a50.86 50.86 0 0 1 8.87 2.9c3.52 1.39 7.15 2.83 11 3.19a61.71 61.71 0 0 0 7.64.11c4.46-.12 8.67-.24 13.61 1.66 7.07 2.71 12 8.58 15.54 13.39 4 5.48 7.06 8.16 14.54 9.54 2.21.41 4.53.77 6.78 1.11 5.48.85 11.16 1.72 16.35 3.51 6.06 2.09 10.5 5.91 15.2 10 .92.79 1.85 1.59 2.8 2.39 1.13.93 2.3 1.86 3.54 2.83 4.41 3.48 9 7.07 11.73 11.7 4.64 7.79-1.35 11.75-7.14 15.59l-.9.59c-4.53 3-5.08 11.25-3.48 15.81.41 1.17.88 2.34 1.33 3.47 2.34 5.86 4.55 11.4-1.15 16.49-2.74 2.45-6.74 2.58-10.6 2.7-3.38.1-6.87.21-9.35 1.91a49.67 49.67 0 0 0-5.75 4.89c-3 2.79-6 5.67-10 7.16l-3.39 1.27c-13.17 5-25.61 9.67-40.17 10.37-.65 0-1.3.05-2 .05a82.91 82.91 0 0 1-10.81-.93c-2.54-.33-5.17-.68-7.81-.84l-1.36-.08c-7.63-.47-14.84-.91-22.32-2.64-14-3.24-24.49-15.52-32.93-25.39-5.52-6.45-9.94-7.21-18.36-6.56-5.88.47-13.39.48-19.29-3.48-10.68-7.18-19.93-16.92-30-31.61-2-3-3.84-6.19-5.76-9.6-5.2-9.25-10.58-18.82-20.63-22.84-1.35-.54-2.73-1.06-4.12-1.58-4.77-1.78-9.69-3.63-13.8-6.6l-20.24-14.65c-4.67-3.48-7.45-9.59-7.4-16.1Zm-115.68 1.52A21.54 21.54 0 0 0 1026.3 0h3.18a15.19 15.19 0 0 1 2.51.89 33.42 33.42 0 0 1 5.45 3.44c1 .76 2.13 1.55 3.32 2.28 4.9 3 11.61 4.67 17.53 6.11l2 .49c4.93 1.22 10.09 2.06 15.09 2.88 2.48.4 5.05.82 7.55 1.29l1.79.33c5.41 1 12.82 2.46 17.47.56 8.85-3.62 11.1-11.42 11.16-18.27h.7c0 7.07-2.38 15.15-11.59 18.92-4.85 2-12.38.54-17.87-.52l-1.78-.34c-2.5-.46-5.06-.88-7.55-1.28-5-.82-10.18-1.67-15.14-2.89l-2-.49c-6-1.45-12.75-3.1-17.74-6.19-1.21-.75-2.3-1.55-3.36-2.32a33.11 33.11 0 0 0-5.33-3.37Zm-28.83 1a12.16 12.16 0 0 1-.92-2.49h.72a11 11 0 0 0 .8 2.13c2.38 4 6.5 4.28 10.87 4.58a22.21 22.21 0 0 1 7.39 1.26c.64.29 1.35.56 2.09.84 2.57 1 5.49 2.06 6.82 4.51.28.52.55 1 .82 1.6 1.21 2.41 2.46 4.91 4.94 6a12.79 12.79 0 0 0 4.23.86 12 12 0 0 1 5.05 1.21c1.12.64 2.24 1.32 3.36 2 2.21 1.34 4.5 2.71 6.82 3.84 4 1.91 6.25 2.62 10.26.9 1.67-.71 3.27-.26 4.81.17a7.53 7.53 0 0 0 3.85.39 30.65 30.65 0 0 1 7.7-.85c1.07 0 2.18-.05 3.42-.13a17.13 17.13 0 0 0 3.06-.62c2-.53 4-1.08 6-.27a175.22 175.22 0 0 1 21.42 10.11 40.75 40.75 0 0 0 6.52 2.68c4.43 1.55 9 3.15 11.38 6.4 4 5.42 5.65 13.34 4.39 20.68-.92 5.33-.83 5.38 3.84 8l.3.17c2.44 1.38 5 1.17 7.71 1 .58 0 1.16-.09 1.75-.12 1.61-.09 3.26-.35 4.85-.6a42.48 42.48 0 0 1 5.28-.62c3.18-.11 5.41 1.31 7.78 2.81.53.34 1.08.69 1.66 1 3.15 1.88 6.53 3.52 9.8 5.1 2.94 1.43 6 2.91 8.89 4.57 1.49.85 5 1.52 6.81.58a2 2 0 0 0 1.15-1.62c.18-1.67-2.53-4-4.14-5.31-.3-.25-.57-.47-.78-.66-.8-.72-1.59-1.49-2.42-2.31a29.09 29.09 0 0 0-6.12-5c-3.4-1.86-5.62-3.07-8.12-5.87a77.09 77.09 0 0 0-8.84-8.09c-2.31-1.89-4.7-3.85-6.91-6A153.35 153.35 0 0 0 1146 42.83c-.9-.67-1.79-1.35-2.68-2l-1.92-1.45c-4.89-3.64-9.51-7.07-10.61-13.69A118.32 118.32 0 0 1 1129 4.58c0-1.53.14-3.06.31-4.58h.71c-.18 1.53-.29 3.06-.32 4.6a117.7 117.7 0 0 0 1.84 20.94c1.06 6.34 5.56 9.7 10.33 13.25l1.93 1.45 2.68 2a153.06 153.06 0 0 1 15.19 12.59c2.19 2.16 4.56 4.11 6.86 6a78.38 78.38 0 0 1 8.93 8.16c2.41 2.72 4.59 3.9 7.88 5.7a29.87 29.87 0 0 1 6.32 5.18c.83.81 1.61 1.58 2.4 2.28.21.19.47.41.76.65 1.83 1.55 4.6 3.89 4.39 5.92a2.69 2.69 0 0 1-1.53 2.17c-2.08 1.06-5.82.36-7.48-.59-2.88-1.65-5.91-3.12-8.85-4.55-3.28-1.59-6.67-3.23-9.85-5.13-.58-.34-1.14-.7-1.68-1-2.37-1.51-4.4-2.82-7.37-2.7a43.61 43.61 0 0 0-5.2.61c-1.61.25-3.27.52-4.92.61-.58 0-1.16.07-1.73.12-2.82.22-5.49.43-8.11-1l-.3-.17c-4.83-2.73-5.17-3.07-4.19-8.75 1.23-7.15-.41-14.87-4.26-20.15-2.25-3.07-6.73-4.63-11.06-6.15a41.3 41.3 0 0 1-6.62-2.73 174.67 174.67 0 0 0-21.34-10.07c-1.77-.72-3.7-.21-5.56.29a16.37 16.37 0 0 1-3.2.65c-1.25.08-2.37.1-3.45.13a30.15 30.15 0 0 0-7.54.83 8 8 0 0 1-4.21-.4c-1.49-.42-2.9-.81-4.34-.19-4.09 1.74-6.54 1.16-10.84-.92-2.36-1.14-4.65-2.53-6.88-3.87-1.12-.67-2.23-1.34-3.35-2a11.53 11.53 0 0 0-4.76-1.12 13.06 13.06 0 0 1-4.46-.92c-2.71-1.24-4-3.85-5.28-6.37-.27-.54-.53-1.06-.81-1.57-1.2-2.22-3.87-3.23-6.45-4.2-.75-.28-1.46-.55-2.13-.84a21.26 21.26 0 0 0-7.15-1.28c-4.38-.35-8.88-.66-11.45-4.97Zm437 3.17c-8.43-1.48-17.06-3-25.13-5.66h2.27A199 199 0 0 0 1440 5c2.23.39 4.43.77 6.6 1.18 6 1.11 10.93 4.73 15.71 8.24.85.62 1.7 1.25 2.55 1.85a58.76 58.76 0 0 0 8.5 4.72 59.44 59.44 0 0 1 8.64 4.8c11.16 8 23.07 15.14 34.58 22.07l5.83 3.51a49.16 49.16 0 0 1 13.88 12.87c4.77 6.21 10 9.38 16.51 13.38l.83.51c2.81 1.72 5.79 3.26 8.68 4.74s5.87 3 8.7 4.76c.13.08 13.42 8.9 12.57 12.8-.2.9-1 1.44-2.54 1.62-6.62.81-15.49-1.2-21.34-3.55a56.07 56.07 0 0 1-5.2-2.5c-4.26-2.22-8-4.14-13.39-3.11-.53.1-1.14.19-1.78.28-3 .42-6.67 1-7.76 3.6-.19.45-.37.91-.55 1.37-1 2.63-2.11 5.34-4.22 7.35-5.26 5-14 6.15-20.17 6.56a61.72 61.72 0 0 1-7.67-.13c-4.53-.27-9.21-.54-13.21.86-4.92 1.73-6.44 2.43-8.59 6.85a25 25 0 0 1-6.19 7.69 36.72 36.72 0 0 1-4.58 3.24c-4.55 2.91-9.26 5.93-7.58 10.69 1 2.93 3.45 4.52 6 6.2.62.4 1.24.81 1.84 1.23 2.93 2.08 4.19 4.42 5.36 7.76a7.56 7.56 0 0 1-.07 3.92c-.38 2-.69 3.62 1.4 4.53 1.51.66 5-.1 7.32-.6.69-.14 1.31-.28 1.78-.36 7.81-1.3 13.76-1.23 21.08 3a33.11 33.11 0 0 1 4.63 3.8c3.74 3.38 8.38 7.6 11.5 6.24a62.25 62.25 0 0 0 9.78-5.84 69 69 0 0 1 8.83-5.4c5.62-2.71 13.78-1.42 20.78 3.28 6.71 4.5 10.65 11 10.29 16.91-.22 3.55-2.16 6.86-4 10.07-1.64 2.81-3.34 5.71-3.87 8.75-.7 3.92 1.48 7.78 3.58 11.52a37.19 37.19 0 0 1 2.83 5.75c1.12 3.17 2.45 6.46 3.74 9.63 4.34 10.66 8.82 21.69 7.28 33.09a35.79 35.79 0 0 1-8.07 18.83 54.48 54.48 0 0 0-6.29 10.55c-1.1 2.19-2.23 4.45-3.54 6.63-.43.71-.87 1.4-1.31 2.08-1.7 2.65-3.3 5.15-3.71 8.27a37.08 37.08 0 0 0-.16 5.27c0 1.4.06 2.85 0 4.27-.44 5.83-2.16 11-4 16.52-.3.92-.61 1.85-.91 2.79l-7.49 23.24c-.5 1.57-.35 2.78.45 3.6 2.37 2.41 9.74 1.24 12.74.34a66.36 66.36 0 0 0 10.21-4.38 70.33 70.33 0 0 1 9.82-4.26 26.87 26.87 0 0 1 8.4-.8c3.89 0 7.57.09 11-2.12 8.45-5.48 17.55-10.06 26.35-14.48 4.88-2.45 9.94-5 14.84-7.67 5.14-2.8 10.9-6.29 14.7-10.89l1.62-2c3.76-4.64 7.32-9 13-11.93 1.76-.9 3.61-2 5.57-3.15 4.89-2.9 10.44-6.19 15.72-6.94 6.88-1 14.08-.09 21 .77l1.34.17a16 16 0 0 1 4.24 1.35 11 11 0 0 0 5.21 1.29l2.29-.2a71.63 71.63 0 0 1 8.44-.42c5 .17 14.32 1.34 20 7.35 4.71 5 6.62 11 8.64 17.44l.49 1.56c1.62 5.09 10 9.36 14.64 11.07l1.43.51a.35.35 0 1 1-.22.66l-1.45-.51c-4.8-1.76-13.36-6.17-15.07-11.52l-.49-1.56c-2-6.31-3.88-12.28-8.48-17.17-5.5-5.83-14.58-7-19.51-7.13a68.34 68.34 0 0 0-8.36.42l-2.29.2a11.75 11.75 0 0 1-5.54-1.35 15.3 15.3 0 0 0-4-1.29l-1.35-.17c-6.92-.86-14.08-1.75-20.86-.78-5.14.74-10.63 4-15.47 6.85-2 1.16-3.82 2.26-5.6 3.18-5.51 2.83-9 7.16-12.74 11.74-.53.65-1.07 1.32-1.62 2-3.87 4.7-9.71 8.23-14.91 11.07-4.91 2.68-10 5.22-14.86 7.68-8.78 4.41-17.86 9-26.28 14.44-3.58 2.32-7.54 2.28-11.36 2.23a26.21 26.21 0 0 0-8.18.77 69.28 69.28 0 0 0-9.72 4.22 67.06 67.06 0 0 1-10.32 4.42 31.13 31.13 0 0 1-7.71 1.11c-2.31 0-4.52-.4-5.73-1.63-1-1-1.21-2.47-.62-4.31l7.49-23.24c.31-.94.61-1.86.92-2.79 1.8-5.45 3.5-10.61 3.93-16.35.11-1.39.08-2.82 0-4.21a37.16 37.16 0 0 1 .17-5.37c.42-3.27 2.07-5.84 3.81-8.55.44-.68.88-1.36 1.3-2.07 1.3-2.15 2.42-4.41 3.51-6.58a55.75 55.75 0 0 1 6.38-10.68 35.18 35.18 0 0 0 7.92-18.48c1.51-11.22-2.93-22.16-7.23-32.73-1.3-3.19-2.64-6.48-3.76-9.67a36.23 36.23 0 0 0-2.78-5.64c-2.16-3.85-4.4-7.82-3.66-12 .55-3.16 2.28-6.12 4-9 1.91-3.28 3.72-6.38 3.93-9.76.34-5.69-3.48-11.93-10-16.29-6.8-4.57-14.68-5.84-20.08-3.23a67.22 67.22 0 0 0-8.74 5.35 63.89 63.89 0 0 1-9.9 5.9c-3.53 1.55-8.16-2.66-12.25-6.37a33.1 33.1 0 0 0-4.51-3.7c-7.14-4.15-13-4.22-20.61-2.94-.47.08-1.07.21-1.76.36-2.54.55-6 1.3-7.74.55-2.6-1.13-2.2-3.25-1.81-5.3a6.94 6.94 0 0 0 .1-3.55c-1.13-3.22-2.33-5.46-5.11-7.43-.59-.42-1.2-.82-1.81-1.21-2.55-1.68-5.2-3.41-6.3-6.56-1.86-5.28 3.31-8.59 7.87-11.51a35.58 35.58 0 0 0 4.49-3.18 23.91 23.91 0 0 0 6-7.47c2.26-4.64 4.07-5.47 9-7.2 4.13-1.45 8.88-1.17 13.48-.9a62.76 62.76 0 0 0 7.58.14c6-.42 14.64-1.52 19.74-6.38 2-1.9 3-4.54 4-7.1.18-.46.36-.92.55-1.38 1.24-3 5.16-3.58 8.31-4 .63-.09 1.23-.17 1.75-.27 5.68-1.07 9.65 1 13.84 3.18 1.61.84 3.27 1.7 5.09 2.44 5.77 2.31 14.5 4.3 21 3.51 1.17-.14 1.82-.5 1.94-1.08.64-2.94-10-10.7-12.25-12-2.8-1.72-5.78-3.25-8.65-4.73s-5.89-3-8.73-4.78l-.83-.5c-6.62-4-11.85-7.24-16.7-13.56a47.92 47.92 0 0 0-13.7-12.71l-5.83-3.51c-11.52-6.94-23.44-14.12-34.63-22.1a58.36 58.36 0 0 0-8.54-4.74 60.84 60.84 0 0 1-8.6-4.78q-1.28-.91-2.55-1.86c-4.72-3.45-9.6-7-15.43-8.12q-3.25-.6-6.59-1.17Zm84.1 2.2c-5.66-2.89-10.4-5.42-14.72-7.89h1.41c4 2.28 8.43 4.62 13.6 7.24a95.27 95.27 0 0 0 13.75 5.23c1.92.61 3.91 1.25 5.82 1.92 4.79 1.68 9.3 5.81 13.28 9.45 1.35 1.24 2.63 2.41 3.86 3.44 3.28 2.73 7.23 4.33 11 5.88 2.16.87 4.4 1.78 6.52 2.89a98.82 98.82 0 0 0 20.24 8.32c2.26.62 4.56 1.34 6.79 2a101.3 101.3 0 0 0 13.09 3.45 50.13 50.13 0 0 1 11 3c2.94 1.15 5.41 1.14 8.54 1.13h1.48a90 90 0 0 1 23.48 3.12c4.92 1.24 10.2 1.45 15.32 1.66 1.86.08 3.79.15 5.65.28 5.73.39 13.84 2.86 18.26 6.83 6 5.43 11.26 9.3 18.58 11.83 2.31.8 4.59 1.53 6.8 2.23a137.26 137.26 0 0 1 14.29 5.22 92.89 92.89 0 0 0 19 5.88 23.31 23.31 0 0 0 9.5.34 26.17 26.17 0 0 0 4-1.38c2.11-.84 4.28-1.74 6.22-1.66a14.76 14.76 0 0 1 6.2 1.7v.78a14.29 14.29 0 0 0-6.22-1.78c-1.79 0-3.9.8-5.94 1.61a26.19 26.19 0 0 1-4.16 1.41 23.94 23.94 0 0 1-9.78-.33 93.45 93.45 0 0 1-19.08-5.93 136.67 136.67 0 0 0-14.23-5.13c-2.2-.71-4.49-1.44-6.81-2.24-7.43-2.57-12.71-6.48-18.82-12-4.3-3.86-12.23-6.27-17.84-6.65-1.85-.13-3.77-.21-5.63-.28-5.15-.21-10.47-.43-15.46-1.68a89.18 89.18 0 0 0-23.31-3.1h-1.48c-3.08 0-5.73 0-8.79-1.18a49.72 49.72 0 0 0-10.81-3 98.88 98.88 0 0 1-13.19-3.48c-2.22-.69-4.52-1.41-6.77-2a99.72 99.72 0 0 1-20.38-8.38 68.3 68.3 0 0 0-6.46-2.86c-3.86-1.57-7.86-3.19-11.23-6-1.24-1-2.52-2.21-3.88-3.45-3.93-3.6-8.39-7.68-13-9.31-1.9-.67-3.88-1.3-5.8-1.92a94.63 94.63 0 0 1-13.92-5.24Zm263 64.6v.8a7.12 7.12 0 0 0-7.93-.35l-.23.13c-6.22 3.48-11.13 6.24-18.53 4.2-8.55-2.36-14.87-4.52-21.88-8.63l-3-1.78A126.32 126.32 0 0 1 1720 57c-5.22-4.07-10.62-8.28-16.64-11.14-4.2-2-9.18-2.2-14-2.4-2.43-.1-5-.21-7.3-.54-3.91-.57-7.76-2.31-11.48-4a71.74 71.74 0 0 0-6.88-2.83 197.7 197.7 0 0 0-43.62-8.84c-8.79-.84-20.23-2.33-31-6.41.09-.15.19-.29.27-.44s0-.13.07-.19c10.68 4 22 5.51 30.75 6.34a198.59 198.59 0 0 1 43.83 8.87 69.86 69.86 0 0 1 6.94 2.85c3.68 1.66 7.49 3.37 11.3 3.92a71.26 71.26 0 0 0 7.23.54c4.89.2 9.94.41 14.27 2.46 6.09 2.9 11.52 7.13 16.77 11.23a128.72 128.72 0 0 0 15.2 9.81l3 1.77c7 4.07 13.23 6.22 21.72 8.56 7.12 2 11.68-.59 18-4.13l.23-.13a7.7 7.7 0 0 1 8.28.16Zm-231.33-68.1A55 55 0 0 0 1542.12 0h3.12A49 49 0 0 1 1556 3.76l24 12.17a5.84 5.84 0 0 0-.24.66Zm96-2.48a125.43 125.43 0 0 0-13.3-1.91h6.14c2.45.33 4.87.73 7.35 1.23 8.57 1.72 13 4.29 19.63 9.4a26.39 26.39 0 0 0 17.12 5.26c8.62-.51 13.48-.57 21.28 3.68 2.44 1.34 5 2.49 7.49 3.61a75.53 75.53 0 0 1 10.66 5.46c6 4 12.3 6.57 18.93 9.33l1.67.69c15.39 6.43 28.29 9.67 38.39 9.68V49c-10.21 0-23.18-3.27-38.66-9.73l-1.67-.7c-6.66-2.77-12.95-5.39-19-9.38a75.22 75.22 0 0 0-10.51-5.42c-2.49-1.12-5.07-2.28-7.53-3.62-7.65-4.18-12.18-4.11-20.91-3.6a27.12 27.12 0 0 1-17.71-5.37c-6.53-5.03-10.88-7.57-19.32-9.27ZM1730.84 4a43.92 43.92 0 0 1-9.28-4h1.5a39.71 39.71 0 0 0 8 3.28 178.74 178.74 0 0 1 22.3 7.52 57.43 57.43 0 0 0 7.22 2.27c3.93 1 8 2.11 11.54 4.6a26.37 26.37 0 0 1 3 2.58 17.25 17.25 0 0 0 4.37 3.36 45.84 45.84 0 0 0 7.5 2.6v.73a48.34 48.34 0 0 1-7.8-2.7 17.78 17.78 0 0 1-4.55-3.49 26.73 26.73 0 0 0-2.91-2.51c-3.45-2.41-7.27-3.42-11.32-4.5a57.09 57.09 0 0 1-7.31-2.29A177.31 177.31 0 0 0 1730.84 4Zm-5.41 4.68c-6.21-2.42-12.6-4.93-18.28-8.64h1.32c5.39 3.35 11.38 5.71 17.22 8a108.72 108.72 0 0 1 16.55 7.55 102 102 0 0 0 20.65 9.38 38 38 0 0 1 6.69 3.4c1.06.63 2.05 1.22 3.05 1.75a26.12 26.12 0 0 0 7.28 2.26c.6.12 1.19.24 1.8.38q2.64.59 5.23 1.06v.71c-1.77-.33-3.57-.69-5.38-1.09l-1.79-.38a26.89 26.89 0 0 1-7.47-2.32c-1-.54-2.06-1.16-3.08-1.76a36.94 36.94 0 0 0-6.56-3.35 102.41 102.41 0 0 1-20.78-9.44 108 108 0 0 0-16.45-7.55ZM1141.18 0h.71a29.38 29.38 0 0 0 2.35 13.55c2.3 5.76 7.53 9.45 12.58 13l.87.62c5.71 4 11.38 8.47 18.4 14.37 2.67 2.23 6 3.57 9.25 4.86a40.82 40.82 0 0 1 8.22 4c3.4 2.34 4.69 6 5.93 9.55a24.91 24.91 0 0 0 3.24 6.87c4.21 5.54 9 10.2 14 15.15.84.81 1.68 1.64 2.51 2.46 3.77 3.72 7.22 7.88 10.56 11.91 1.35 1.63 2.7 3.26 4.07 4.85 10.09 11.79 22.82 16 35.07 18.68 2.51.56 4.39 2.89 6 4.94.43.54.85 1 1.25 1.5a28.32 28.32 0 0 0 6.38 4.82l.58.36A204.05 204.05 0 0 0 1303.6 143c12.81 6.08 25.85 6.78 39.66 7.53l1.19.07c15.78.86 29 .76 42.1-2.49a60.36 60.36 0 0 0 11.9-4.86c2.12-1.05 4.31-2.13 6.5-3a87.77 87.77 0 0 0 20.48-11.74c2.79-2.08 7.45-3.3 12.38-4.6 9.52-2.51 20.3-5.35 19.57-15.17a40.08 40.08 0 0 0-1-5.46c-1.09-4.94-2.22-10.06 1.7-14.19a64.12 64.12 0 0 1 7.47-6.44 56.94 56.94 0 0 0 8.52-7.58c2.73-3.19 3.83-6.62 3.27-10.21-1.31-8.44-11.25-16.2-19.37-21.22a68.86 68.86 0 0 0-7.55-3.85 50.73 50.73 0 0 1-10-5.54c-6.65-5.07-11.52-7.17-19.3-9.71-8-2.61-14.43-4.56-21.6-6.17-3.94-.89-7-4.62-9.85-8.23a38.47 38.47 0 0 0-4.36-4.88 40.65 40.65 0 0 0-7.55-5.26h1.49a41.17 41.17 0 0 1 6.54 4.66 39.69 39.69 0 0 1 4.45 5c2.83 3.51 5.76 7.15 9.46 8 7.2 1.62 13.63 3.57 21.66 6.19 7.86 2.57 12.79 4.69 19.51 9.82a49.84 49.84 0 0 0 9.89 5.46 67.84 67.84 0 0 1 7.63 3.9c8.24 5.09 18.34 13 19.69 21.7.59 3.8-.56 7.42-3.43 10.77a57.75 57.75 0 0 1-8.62 7.69 63.84 63.84 0 0 0-7.4 6.36c-3.65 3.86-2.57 8.79-1.52 13.56a40.75 40.75 0 0 1 1 5.56c.78 10.4-10.31 13.32-20.09 15.89-4.87 1.28-9.46 2.5-12.15 4.49a87.9 87.9 0 0 1-20.62 11.83c-2.17.9-4.35 2-6.46 3a61.37 61.37 0 0 1-12 4.91 112.56 112.56 0 0 1-27.51 3c-4.72 0-9.62-.18-14.79-.47l-1.2-.06c-13.88-.75-27-1.46-39.92-7.6a202.39 202.39 0 0 1-20.44-11.5l-.58-.35a28.72 28.72 0 0 1-6.53-5c-.41-.45-.83-1-1.27-1.51-1.59-2-3.39-4.2-5.66-4.71-12.37-2.76-25.23-7-35.46-18.9-1.37-1.6-2.72-3.23-4.07-4.87-3.33-4-6.76-8.16-10.51-11.85-.83-.83-1.67-1.65-2.51-2.46-5.07-5-9.86-9.65-14.1-15.23a25 25 0 0 1-3.34-7.06c-1.26-3.59-2.46-7-5.67-9.2a40.24 40.24 0 0 0-8.08-3.93c-3.29-1.31-6.69-2.67-9.44-5-7-5.88-12.66-10.3-18.35-14.33l-.87-.62c-5.14-3.63-10.45-7.38-12.83-13.33A30.13 30.13 0 0 1 1141.18 0Zm15.24 0h.7c.21 3 2.34 6.26 4.66 8.17 5 4.1 11.3 7.73 16.88 10.93l1.08.62c4.43 2.56 9.16 4.85 13.74 7.07 2.29 1.1 4.65 2.25 6.94 3.41 4.36 2.21 8.47 5.87 12.44 9.41 1.45 1.29 2.82 2.51 4.17 3.63 4.84 4 7.21 9.78 9.51 15.34.37.91.74 1.81 1.13 2.71 3.26 7.63 6.29 12.95 10.12 17.77 4.75 6 10.67 10.6 15.83 12.42 7.83 2.75 14.06 2.78 21.56 1.93l1.47-.17a56.1 56.1 0 0 1 6.8-.54c.75 0 1.51 0 2.29.09 2.42.21 5.19 2.14 7.42 3.69.7.49 1.37 1 2 1.32 3.93 2.43 5.74 6.15 7.49 9.76a38.62 38.62 0 0 0 3.37 6c8.58 11.73 20.66 15.61 36.16 17.83 12.94 1.86 27.86 3.51 41.1-.4 1.81-.54 3.77-1 5.85-1.51 5.22-1.25 11.14-2.67 15.27-5.44a53.28 53.28 0 0 0 6.88-6c3.19-3.11 6.5-6.32 10.1-7.81a28.53 28.53 0 0 1 4.83-1.22c3.79-.75 8.5-1.69 9.75-4.15a4.12 4.12 0 0 0-.26-3.69 62.34 62.34 0 0 0-3.67-6.35c-2.39-3.79-4.86-7.71-5.6-11.83-1-5.38 2.19-8.25 5.23-11a19.55 19.55 0 0 0 4.8-5.64c2.25-4.61-6.09-13-9.63-15.4-8.2-5.56-17.19-6.18-26.71-6.85a101.56 101.56 0 0 1-15.12-1.82c-6.89-1.51-8.69-5.8-10.77-10.77-.43-1-.87-2.07-1.37-3.14-3-6.33-11.19-8.34-15.84-9l-1.2-.17c-7.63-1-14.22-1.95-21.37-4.62s-13.42-4.81-21.15-5.35a45.87 45.87 0 0 0-11.07 1.1 51.57 51.57 0 0 1-10.66 1.17 110.29 110.29 0 0 1-16.28-2.19c-2.42-.45-4.92-.92-7.34-1.29a183.18 183.18 0 0 1-20.91-4.89c-3.94-1.09-8-2.2-12-3.15h3c3.12.78 6.21 1.63 9.25 2.47a182.3 182.3 0 0 0 20.83 4.88c2.43.37 4.94.84 7.36 1.29a109.35 109.35 0 0 0 16.17 2.18 50.53 50.53 0 0 0 10.52-1.16 46.57 46.57 0 0 1 11.24-1.11c7.82.54 14.29 2.77 21.35 5.4s13.63 3.53 21.22 4.58l1.2.16c4.78.66 13.27 2.76 16.37 9.38.51 1.08 1 2.14 1.38 3.17 2.1 5 3.75 8.92 10.28 10.36a102.56 102.56 0 0 0 15 1.79c9.62.67 18.7 1.31 27 7 3.81 2.58 12.33 11.22 9.87 16.29a20 20 0 0 1-5 5.85c-3 2.76-5.91 5.38-5 10.37.71 4 3.15 7.85 5.5 11.58a60.79 60.79 0 0 1 3.71 6.44 4.79 4.79 0 0 1 .25 4.3c-1.4 2.77-6.09 3.7-10.24 4.52a28.6 28.6 0 0 0-4.7 1.17c-3.47 1.44-6.73 4.61-9.88 7.67a53 53 0 0 1-7 6.06c-4.23 2.83-10.22 4.27-15.5 5.53-2.07.5-4 1-5.81 1.5a66.19 66.19 0 0 1-18.69 2.42 160.77 160.77 0 0 1-22.71-2c-15.67-2.24-27.9-6.18-36.62-18.11a38.13 38.13 0 0 1-3.44-6.09c-1.78-3.67-3.47-7.14-7.22-9.47-.61-.37-1.29-.84-2-1.34-2.16-1.5-4.85-3.37-7.08-3.56a43.3 43.3 0 0 0-9 .44l-1.47.17c-7.61.87-13.92.84-21.88-2-5.27-1.86-11.31-6.59-16.13-12.65-3.88-4.87-6.94-10.23-10.23-17.93-.38-.89-.76-1.8-1.13-2.71-2.26-5.48-4.6-11.15-9.31-15.07-1.36-1.13-2.73-2.35-4.18-3.65-3.94-3.51-8-7.14-12.29-9.3-2.29-1.16-4.65-2.31-6.94-3.41-4.58-2.23-9.32-4.52-13.78-7.09l-1.08-.62c-5.6-3.22-12-6.86-17-11-2.41-2.03-4.62-5.46-4.81-8.68Zm622.76 115.83a31.71 31.71 0 0 1 7.76 5.07v.91a32.15 32.15 0 0 0-8-5.33 56.79 56.79 0 0 0-11.45-2.93c-2.43-.44-5-.9-7.37-1.55l-1.17-.31a178.73 178.73 0 0 0-21.06-4.78c-.9-.13-1.92-.21-3-.29-2.52-.19-5.36-.4-7.4-1.44L1716 99.32c-4.15-2.11-9.19-3.3-14-4.45-2.34-.54-4.54-1.06-6.66-1.68a75.22 75.22 0 0 1-8.09-3 64.63 64.63 0 0 0-9.41-3.39c-1.19-.29-2.44-.53-3.77-.78a36.5 36.5 0 0 1-8-2.15c-.91-.41-1.9-1-2.94-1.54-2.12-1.17-4.52-2.5-6.53-2.76-3.1-.39-5.24 1.82-7.31 4-.42.44-.84.87-1.26 1.28a18.78 18.78 0 0 1-6.25 3.49c-.52.2-1 .4-1.53.62 1.94 2.12 5.57 1.65 9.09 1.2 2.49-.32 4.84-.62 6.71-.09 5.58 1.59 7.77 8 7 13.54a15 15 0 0 1-.66 2.58c-.41 1.29-.8 2.51-.35 3.11.28.37 1 .56 2 .53a22.43 22.43 0 0 0 6.06-1.33c.93-.29 1.82-.57 2.68-.79 4.07-1 8.92.53 13.2 1.91 1.33.42 2.58.83 3.75 1.13a42.12 42.12 0 0 0 10 1c1.94 0 3.94.09 6 .29 5.94.61 11.12 2.44 16.6 4.37l2.3.81c3.45 1.21 7.17 1.16 10.76 1.12 1.85 0 3.76-.05 5.63.1 5.89.45 10.3 2.72 15.46 5.64 2.94 1.66 6.08 3.08 9.11 4.45a100.18 100.18 0 0 1 10 4.94c5 3 8.63 7.49 11.55 12v1.28c-3-4.69-6.69-9.56-11.9-12.64a99.83 99.83 0 0 0-9.89-4.9c-3.05-1.38-6.21-2.8-9.18-4.48-5.08-2.88-9.42-5.12-15.16-5.56-1.85-.13-3.74-.11-5.57-.09-3.66 0-7.43.09-11-1.16l-2.31-.81c-5.44-1.92-10.57-3.74-16.43-4.33-2-.2-4-.25-5.91-.29a43 43 0 0 1-10.12-1c-1.18-.31-2.45-.72-3.79-1.15-4.18-1.34-8.93-2.87-12.81-1.89-.84.22-1.72.49-2.64.78a23.09 23.09 0 0 1-6.25 1.36c-1.28 0-2.11-.24-2.53-.82-.67-.89-.22-2.27.25-3.74a14 14 0 0 0 .63-2.45c.68-5.23-1.35-11.29-6.55-12.77-1.73-.5-4-.21-6.44.11-3.89.5-7.92 1-10-1.83a.4.4 0 0 1-.06-.3.35.35 0 0 1 .2-.23q1-.42 2-.81a18.19 18.19 0 0 0 6-3.35c.41-.4.82-.82 1.24-1.25 2.08-2.17 4.45-4.63 7.9-4.18 2.14.28 4.61 1.64 6.78 2.84 1 .57 2 1.11 2.89 1.51a35.55 35.55 0 0 0 7.86 2.1c1.34.26 2.6.5 3.81.79a63.62 63.62 0 0 1 9.51 3.43 75.34 75.34 0 0 0 8 3c2.11.61 4.3 1.13 6.63 1.67 4.91 1.16 10 2.35 14.21 4.51l11.48 5.86c1.91 1 4.68 1.18 7.13 1.36 1.09.08 2.11.16 3 .3a179.31 179.31 0 0 1 21.15 4.79l1.16.31c2.4.65 4.9 1.11 7.32 1.55a56.85 56.85 0 0 1 11.43 2.84ZM1777.48 2c-2.37-.67-4.78-1.35-7.21-2h2.65q2.4.66 4.75 1.34l3.42 1a25.06 25.06 0 0 1 5.85 2.53v.83a24.68 24.68 0 0 0-6-2.69ZM1179.8 0h2.33a5.27 5.27 0 0 0-3.77 2.1 1.75 1.75 0 0 0-.43 1.63c1.09 4.57 17.4 11.28 26.17 14.88 3.27 1.35 5.64 2.32 6.57 2.87 7.95 4.7 22.23 15 28.61 31.12a60 60 0 0 1 2.2 7.48c1 4.09 2.06 8.31 4.48 11.8 3.2 4.62 9.82 9.85 15.78 10.46 8.45.85 14.47-1.43 22.09-4.32a6.59 6.59 0 0 1 2.34-.41c4.71 0 10.46 4.31 14.73 8.27 4.48 4.15 7.65 9.57 10.72 14.81.71 1.22 1.42 2.43 2.14 3.62 3.69 6.09 9.29 9.83 14.28 12.69 11.91 6.82 29.58 8.5 41 7.19 1.41-.17 2.83-.32 4.25-.47 12.7-1.37 25.83-2.79 35.27-12.67.56-.58 1.1-1.17 1.65-1.76a57.26 57.26 0 0 1 5.73-5.6c.42-.33.84-.66 1.27-1 2.47-1.89 4.81-3.67 4-7.07a21.71 21.71 0 0 0-3.35-6.78c-2.28-3.49-4.43-6.79-2.86-12a28.27 28.27 0 0 1 2.07-4.43c2.28-4.31 5.12-9.67 2-12.88-4.87-4.94-10.25-5.23-17.06-5.6l-1.88-.1c-7.27-.38-14.14-.74-21.29-2.38-5.32-1.22-10.53-6.27-14.72-10.33-.85-.82-1.65-1.61-2.41-2.31-10.16-9.42-25.3-14.42-38.69-18.37-6.42-1.9-12.57-1.36-19.08-.8-.83.07-1.66.15-2.49.21-5.67.46-10.89-.53-16.41-1.59l-.43-.08c-10-1.92-20.16-4.18-29.94-6.36-8.08-1.8-16.44-3.67-24.71-5.33-6.46-1.3-13.12-2.3-19.57-3.26-3.21-.48-6.54-1-9.79-1.51-.76-.12-1.72-.3-2.8-.51-2.19-.43-5.08-1-8-1.31h4.79c1.17.21 2.3.42 3.31.62s2 .39 2.78.51c3.25.53 6.57 1 9.79 1.51 6.45 1 13.12 2 19.6 3.27 8.28 1.66 16.63 3.52 24.72 5.33 9.78 2.18 19.89 4.43 29.92 6.35l.43.08c5.48 1 10.65 2 16.22 1.59l2.49-.21c6.58-.57 12.79-1.11 19.33.82 13.48 4 28.71 9 39 18.53.76.7 1.57 1.49 2.42 2.31 4.12 4 9.26 9 14.38 10.16 7.09 1.62 13.94 2 21.18 2.36l1.88.1c6.68.36 12.45.67 17.52 5.81 3.51 3.57.54 9.19-1.86 13.7a28.45 28.45 0 0 0-2 4.31c-1.48 4.86.59 8 2.78 11.38a22.37 22.37 0 0 1 3.44 7c.91 3.85-1.72 5.86-4.27 7.79-.42.32-.84.64-1.25 1a55.78 55.78 0 0 0-5.66 5.53c-.55.59-1.09 1.18-1.65 1.76-9.62 10.07-22.88 11.5-35.7 12.88l-4.25.47a68.27 68.27 0 0 1-7.73.42c-10.81 0-24.07-2.2-33.65-7.69-5.07-2.91-10.77-6.71-14.54-12.94-.72-1.19-1.43-2.4-2.14-3.62-3-5.2-6.19-10.58-10.59-14.66-4-3.68-11.41-9.59-16.35-7.72-7.71 2.93-13.8 5.23-22.42 4.36-6.23-.63-12.9-5.89-16.27-10.75-2.5-3.6-3.56-7.88-4.59-12a58.22 58.22 0 0 0-2.17-7.4c-6.3-15.93-20.45-26.11-28.32-30.77-.88-.52-3.35-1.53-6.48-2.82-9.5-3.91-25.41-10.45-26.58-15.37a2.46 2.46 0 0 1 .56-2.23A4.63 4.63 0 0 1 1179.8 0Zm607.14 109.11v.89c-4.18-3.74-8.61-4.41-14.85-4.24-13.51.38-28.11-4.42-41-8.66l-1.24-.41a240.94 240.94 0 0 1-39.94-16.83c-11.41-6.27-27-6.62-40.63-6.47-1.84 0-3.7.08-5.56.14a93.28 93.28 0 0 1-17-.51c-1.43-.23-3-.41-4.54-.6-5.64-.67-12-1.42-16.65-4.45-.84-.55-1.7-1.19-2.6-1.87-2.11-1.58-4.29-3.21-6.53-3.86-.94-.28-1.9-.53-2.87-.78a43.15 43.15 0 0 1-7.41-2.44 61.44 61.44 0 0 1-10-6.48 81 81 0 0 0-7.42-5.13 80.89 80.89 0 0 1-9.18-6.54c-2.35-1.84-4.78-3.75-7.37-5.42a124.74 124.74 0 0 0-20.67-10.87c-5.73-2.39-11.7-5.13-18.77-8.61L1500 9.72c-.81-.4-3.26-1.61-3.75-1.15-.12.11-.14.48.15 1.2 1.38 3.42 7 6.74 11 9.16.9.53 1.72 1 2.42 1.46l22.78 14.43c10.08 6.39 18.76 15.44 27.15 24.19l3.78 3.93c4.49 4.63 9.73 9.89 15.07 13.65a54.43 54.43 0 0 0 10.84 5.41c2.51 1 5.1 2.08 7.48 3.33 8.39 4.44 15 7.7 21.31 10.56 3.29 1.49 5.08 3.76 5 6.4-.06 3.2-2.81 6.47-6.85 8.13a21.19 21.19 0 0 1-7.61 1.13c-4 .11-7.83.2-10.9 3.63-.83.93-2.76 3.09-2.48 3.66s3 .35 4.36.25a30.88 30.88 0 0 1 10.43.51c7.6 1.74 12.37 4.43 12.62 12.47 0 .53 0 1.09.07 1.67.23 5.71.56 13.54-3.89 17.4-.55.48-1.13.93-1.7 1.38-2.43 1.91-4.72 3.72-4.74 6.92 0 2.7 1.63 4.67 3.37 6.75.45.54.89 1.08 1.31 1.63 2.52 3.3 2.55 7.35 2.59 11.26a28 28 0 0 0 .68 7.18c3.89-4.29 6.5-10.42 9-16.36 1.11-2.59 2.15-5 3.26-7.25l.34-.67a29.6 29.6 0 0 0 3.16-8.18 30.73 30.73 0 0 0 .32-5.19 25.39 25.39 0 0 1 .62-6.58c1.85-6.62 5.51-10.58 12.26-13.26 1.81-.72 3.65-1.49 5.43-2.24 5.36-2.26 10.91-4.6 16.65-5.83 4.3-.92 8.06-.33 12 .29a49.6 49.6 0 0 0 7.89.8c1.47 0 2.92 0 4.38-.07 5.92-.12 11.51-.23 17.2 1.26a113.93 113.93 0 0 0 23.85 3.78c4.1.23 6.94 1.09 9.48 2.9a17.84 17.84 0 0 1 2.93 2.82 14.11 14.11 0 0 0 3.52 3.16l1.66.95c2.83 1.64 5.75 3.34 9 4a29.6 29.6 0 0 0 3.89.42 18 18 0 0 1 6.28 1.16c5.88 2.51 11.29 9 13.24 15.85v4.84a19.43 19.43 0 0 0-.6-4.41c-1.84-6.75-7.15-13.18-12.91-15.63a17.41 17.41 0 0 0-6-1.12 29.48 29.48 0 0 1-4-.43c-3.35-.65-6.32-2.37-9.2-4l-1.65-1a14.91 14.91 0 0 1-3.7-3.3 17.65 17.65 0 0 0-2.81-2.72c-2.43-1.72-5.16-2.55-9.12-2.77a114.53 114.53 0 0 1-24-3.81c-5.6-1.46-11.15-1.34-17-1.23-1.46 0-2.92.06-4.39.07a55.57 55.57 0 0 1-8-.8c-3.92-.62-7.61-1.2-11.79-.3-5.68 1.21-11.2 3.54-16.53 5.78-1.78.75-3.62 1.53-5.44 2.25-6.52 2.59-10.06 6.42-11.85 12.8a25 25 0 0 0-.59 6.39 31.24 31.24 0 0 1-.33 5.31 29.79 29.79 0 0 1-3.23 8.38l-.33.66c-1.11 2.21-2.15 4.64-3.24 7.21-2.65 6.2-5.38 12.62-9.59 17a.35.35 0 0 1-.58-.13 26.07 26.07 0 0 1-.89-8c0-3.8-.07-7.73-2.44-10.85-.42-.54-.86-1.07-1.3-1.6-1.74-2.09-3.54-4.25-3.53-7.21 0-3.53 2.55-5.53 5-7.46.57-.44 1.14-.89 1.68-1.36 4.19-3.64 3.88-11.27 3.65-16.84 0-.58 0-1.14-.06-1.68-.25-7.62-4.62-10.1-12.09-11.81a30.63 30.63 0 0 0-10.22-.5c-3.08.24-4.63.2-5-.63s.5-2.1 2.59-4.43c3.27-3.66 7.4-3.77 11.4-3.87a20.48 20.48 0 0 0 7.36-1.08c3.79-1.55 6.37-4.56 6.42-7.49 0-2.38-1.56-4.37-4.63-5.75-6.36-2.87-13-6.13-21.35-10.58a79.93 79.93 0 0 0-7.42-3.3 55 55 0 0 1-11-5.44c-5.4-3.8-10.66-9.08-15.18-13.74l-3.77-3.92c-8.37-8.73-17-17.75-27-24.09L1509.45 21l-2.45-1.47c-4.16-2.47-9.86-5.86-11.33-9.5-.14-.35-.57-1.42 0-2 .78-.73 2.67.11 4.54 1l12.79 6.35c7.06 3.48 13 6.21 18.73 8.59a125.68 125.68 0 0 1 20.78 10.93c2.62 1.69 5.06 3.61 7.42 5.46a81.34 81.34 0 0 0 9.1 6.49 83.59 83.59 0 0 1 7.49 5.16 60 60 0 0 0 9.85 6.41 41.78 41.78 0 0 0 7.29 2.4c1 .26 1.94.51 2.89.79 2.36.69 4.59 2.36 6.75 4 .89.67 1.74 1.3 2.57 1.85 4.48 2.93 10.78 3.68 16.34 4.34 1.6.19 3.12.37 4.57.59 5.55.86 11.32.68 16.9.51 1.86-.06 3.72-.12 5.57-.14 13.76-.15 29.41.21 41 6.56a241.19 241.19 0 0 0 39.82 16.78l1.24.41c12.83 4.22 27.37 9 40.76 8.62 6.2-.2 10.67.45 14.87 3.98Zm-.17 58.89c.07-1.08.14-2.17.17-3.26v11.83a33.27 33.27 0 0 1-.17-8.57ZM1567.75.4 1567 0h1.52a255.72 255.72 0 0 0 24.2 11.54c10.92 4.29 23.2 5.83 35.07 7.33 4.24.53 8.63 1.08 12.83 1.75 1.16.18 2.34.34 3.51.5a45.6 45.6 0 0 1 11 2.4c2.47 1 5 2.06 7.39 3.08 4.86 2 9.88 4.17 14.9 5.9 4.3 1.48 8.32 1.49 12.58 1.5a65.9 65.9 0 0 1 7.72.34c7.33.89 13.3 5 19.81 9.95 8.33 6.3 21.27 14.89 35.61 20l1.15.42c7.61 2.72 11.8 4.22 19.64 1.47l1-.35c4.49-1.58 8.38-2.95 12.06-2v.73c-3.51-1-7.26.3-11.82 1.91l-1 .35c-8.07 2.83-12.6 1.21-20.1-1.48l-1.15-.41c-14.43-5.13-27.43-13.76-35.81-20.09-6.41-4.86-12.31-9-19.46-9.81a62.36 62.36 0 0 0-7.64-.33c-4.32 0-8.4 0-12.81-1.55-5-1.74-10.08-3.86-14.94-5.92-2.42-1-4.92-2.08-7.38-3.07a45.21 45.21 0 0 0-10.88-2.35c-1.18-.16-2.36-.31-3.53-.5-4.19-.66-8.57-1.22-12.81-1.75-11.91-1.5-24.23-3-35.23-7.36A261.79 261.79 0 0 1 1567.75.4Zm21.69 19.8a5.15 5.15 0 0 0-6.45-6.93 5.11 5.11 0 0 0-3 2.64 5.84 5.84 0 0 0-.24.66 5.14 5.14 0 0 0 4.92 6.73 5.39 5.39 0 0 0 1.71-.29 5.15 5.15 0 0 0 2.68-2.2c.09-.15.19-.29.27-.44s.08-.11.11-.17Zm-3.25 2.17a4.47 4.47 0 0 1-5.52-6.16 4.44 4.44 0 0 1 2.55-2.28 4.28 4.28 0 0 1 1.48-.26 4.48 4.48 0 0 1 1.49 8.7Z"/></svg>